<svg width="161" height="37" viewBox="0 0 161 37" fill="none" xmlns="http://www.w3.org/2000/svg">
<path fill-rule="evenodd" clip-rule="evenodd" d="M25.8956 23.0833C25.5304 23.0833 19.6989 19.777 19.146 19.7342L22.2965 27.8127C22.4008 27.9946 27.596 33.3338 27.8464 33.505L33.4066 28.7222L35.6286 23.7146C35.7225 23.4899 35.806 23.3508 35.8894 23.1582C36.0459 22.8051 36.2859 22.3343 36.3276 22.0454L36.4736 18.0971C36.4736 17.7119 36.5362 17.6905 36.5467 17.3588C36.5571 17.102 36.5467 16.8024 36.5467 16.5349C36.411 16.567 36.4736 16.5563 36.4006 16.6098C36.3902 16.6205 36.3693 16.6312 36.3589 16.6419C36.3485 16.6526 36.3276 16.6633 36.3172 16.674L33.9491 19.2206C32.1965 21.168 32.6555 20.7935 30.7569 21.4569C30.2249 21.6388 29.7033 21.8421 29.1295 22.0133C28.587 22.1738 26.1668 23.0833 25.8956 23.0833ZM35.2218 19.8626C35.0132 19.9589 35.1383 19.8733 34.961 20.0338C34.0117 20.8791 33.8239 21.81 32.2174 22.3557C30.8821 22.8051 29.5155 23.2759 28.1906 23.7253C25.3844 24.6883 26.2294 24.6883 24.3203 23.7253L21.6497 22.3771C21.2533 22.2166 21.3159 22.3878 21.1594 22.1952C21.0134 22.0133 21.1177 21.8314 21.3681 21.8956C21.5558 21.9384 21.4411 21.9384 21.5976 22.0561L23.1415 22.8586C23.7466 23.1689 24.3203 23.4471 24.9462 23.7681C26.052 24.3245 25.6035 24.3459 26.8136 23.95L30.7882 22.5911C31.4245 22.3771 32.2069 22.1631 32.8016 21.9063C33.2501 21.7137 35.0444 19.4774 35.5035 19.2206C35.5869 21.4569 35.5139 21.6816 34.8045 23.2866L34.3768 24.4315C34.1995 24.6241 34.0117 24.3887 34.0743 24.1961C34.0743 24.1854 34.2829 23.8751 34.3559 23.7253C35.1488 21.8742 35.274 21.9598 35.2218 19.8626Z" fill="white"/>
<path fill-rule="evenodd" clip-rule="evenodd" d="M140.114 31.3294H145.586C145.692 30.1655 146.672 28.0281 146.778 26.7583H154.187L155.529 31.3294H161L157.402 18.5684C156.7 16.4521 156.231 14.4417 155.593 12.2831L154.209 7.4792C153.719 5.68038 154.358 6.14596 147.992 6.14596C146.906 6.14596 147.076 7.09828 146.523 8.81245L145.607 12.0292C144.649 15.7114 142.967 21.0021 141.903 24.8325C141.562 26.0176 140.199 30.4617 140.114 31.3294ZM150.632 14.1031C150.717 15.0342 152.399 20.346 152.697 21.6158H148.396C148.481 20.5577 149.141 18.8223 149.44 17.7854L150.376 14.5898C150.398 14.5475 150.44 14.4205 150.461 14.3782C150.611 14.1031 150.525 14.2724 150.632 14.1031Z" fill="white"/>
<path fill-rule="evenodd" clip-rule="evenodd" d="M104.432 17.4427V25.0242C104.432 28.7615 106.987 31.2602 110.543 31.2602C114.672 31.2602 119.578 32.1358 121.295 27.6296C122.072 25.5581 121.786 20.219 121.786 17.5922C121.786 13.5559 119.006 11.3562 115.245 11.3562C111.872 11.3562 108.745 10.9077 106.353 12.8938C105.924 13.2569 105.229 14.2606 105.025 14.7945C104.8 15.3711 104.432 16.6952 104.432 17.4427ZM109.685 24.5757V18.3397C109.685 15.9691 111.647 16.5671 114.938 16.5671C115.919 16.5671 116.512 17.1223 116.512 18.062V24.4476C116.512 26.69 114.55 26.092 110.973 26.092C110.196 26.0706 109.685 25.3232 109.685 24.5757Z" fill="white"/>
<path fill-rule="evenodd" clip-rule="evenodd" d="M88.7661 6.32267V31.3294H94.2789V21.3309H102.987V16.3211H94.2789V11.3113H104.866V6.30153C103.342 5.94217 91.9819 6.15356 89.4761 6.15356C89.2672 6.1747 88.9331 6.23811 88.7661 6.32267Z" fill="white"/>
<path fill-rule="evenodd" clip-rule="evenodd" d="M123.578 17.4187V25.352C123.578 26.3839 123.793 27.0504 124.116 27.8029C125.128 30.0173 127.065 31.3288 129.863 31.3288H140.043C140.043 25.0725 140.796 26.1044 137.353 26.1044H130.767C129.626 26.0829 129.131 25.5885 129.131 24.449C129.131 22.6001 128.808 17.7627 129.54 16.9457C129.82 16.6447 130.229 16.5372 130.767 16.5372H140.043V11.3129H130.465C126.548 11.2914 123.578 13.4413 123.578 17.4187Z" fill="white"/>
<path fill-rule="evenodd" clip-rule="evenodd" d="M0.00407589 31.9793C0.00407589 33.1576 -0.0683126 32.922 0.397041 33.1362C0.552159 33.2005 0.531477 33.2112 0.634889 33.2647L2.01027 33.9289C2.36187 34.0574 3.6752 33.0184 3.9751 32.8256L7.83236 30.3404C7.791 29.8691 5.22638 23.999 5.0299 23.5598C4.88512 23.217 4.28533 21.5246 4.0268 21.321C4.01646 21.7817 3.86134 22.3601 3.80964 22.885L3.23053 26.9019C3.09609 27.791 2.99268 27.6732 2.24812 28.7122L0.314312 31.3366C0.159194 31.5401 0.00407589 31.6794 0.00407589 31.9793ZM2.3205 30.8117C2.10334 31.1009 1.95856 31.3045 1.73106 31.6151C1.15195 32.3971 1.50355 32.2793 1.14161 32.4292C0.717618 32.2043 0.996831 32.1079 1.23468 31.8508L3.15814 29.2157C4.34738 27.5768 4.08885 28.2623 4.34738 26.1199C4.45079 25.2416 4.25431 25.113 4.53352 25.0488C4.95751 24.9524 4.63693 25.6808 4.59557 26.0021C4.54386 26.4199 4.49216 26.8484 4.45079 27.2661C4.3784 27.8981 4.40943 27.8981 4.08885 28.3159L2.3205 30.8117Z" fill="white"/>
<path fill-rule="evenodd" clip-rule="evenodd" d="M13.7103 2.50941C12.2712 1.06941 12.8864 1.28117 11.2491 1.28117C11.1031 1.28117 10.4044 1.5247 10.6234 1.08C10.7486 0.836469 10.8529 0.984704 11.051 1.01647C12.5944 1.26 12.1564 0.582351 13.168 1.60941C14.4403 2.89059 14.2004 2.41412 14.3882 3.76941C14.4507 4.20353 14.6072 4.29882 14.5237 4.60588H14.2004C14.1692 4.52118 14.1483 3.74823 14.1066 3.45176C14.0232 2.90117 14.044 2.84823 13.7103 2.50941ZM9.21558 2.13882C9.21558 1.56706 10.2272 1.54588 10.2272 2.13882C10.2272 2.91176 9.21558 2.91176 9.21558 2.13882ZM8.41258 26.4812C8.06844 26.3753 8.22486 26.4177 8.13101 26.0577L6.04529 21.1235C5.80544 20.5412 5.33615 19.8953 5.51344 19.2282L7.03601 13.0553C7.12986 12.6953 7.20286 12.3882 7.28629 12.0494C7.36972 11.7212 7.27586 11.0329 7.65129 11.2447C7.90158 11.3824 7.72429 11.52 7.65129 11.6682L6.73358 15.2471C6.39986 16.5812 5.99315 18.0318 5.71158 19.3659C5.60729 19.8318 6.84829 22.3729 7.09858 22.9871C7.35929 23.6012 7.59915 24.1729 7.85986 24.7871C7.99544 25.1047 8.09972 25.3377 8.23529 25.6553C8.52729 26.3012 8.79844 26.2165 8.41258 26.4812ZM25.9534 34.4012L24.1284 34.973C23.4506 35.2059 21.1146 34.4118 20.2907 34.2C19.7693 34.0624 19.4877 33.6388 18.9663 33.12C18.132 32.2835 17.475 31.6694 16.5886 30.6741C16.2444 30.293 15.7439 29.8165 15.3893 29.4565C15.1912 29.2553 15.0139 29.0541 14.8053 28.8635C14.8053 28.8635 13.9189 28.3447 14.5133 28.2494C14.701 28.2177 14.7219 28.3765 14.8053 28.5035L16.9014 30.653C17.7253 31.4788 18.4866 32.2412 19.3104 33.0671C19.8006 33.5541 19.8527 33.8294 20.7287 34.0518C21.3649 34.2106 21.9906 34.3694 22.6267 34.5494C23.607 34.8141 23.534 34.92 24.4934 34.5918C25.7553 34.1577 25.9952 33.8612 25.9534 34.4012ZM11.562 0H12.7509C12.9282 0.0211765 13.0637 0.0741157 13.168 0.179998L15.0139 2.05412C15.2224 2.29765 15.4936 4.78588 15.5666 5.25176L17.3186 17.6188C17.3916 17.8412 17.5063 18.0424 17.6002 18.2859C17.9652 19.2071 18.2989 20.0541 18.643 20.9753C19.2166 22.5212 20.249 24.8612 20.76 26.333C21.0416 27.1482 21.4274 28.2812 21.9802 28.8424L25.6823 32.6012C27.2049 34.1577 26.965 33.5859 26.965 35.0471L24.118 35.9788C23.6174 36.1906 23.7426 36.1271 23.2107 35.9894C22.6267 35.8306 19.592 35.1212 19.3 34.8777L15.5457 31.1082C15.1912 30.7694 14.6176 30.1129 14.2839 29.8906C14.3673 30.1871 14.628 30.3353 14.7949 30.5577C14.8992 30.6953 14.9409 30.7377 15.066 30.8753L18.424 34.8353C18.0069 34.8353 14.5133 33.5753 14.0962 33.4165C13.3662 33.12 12.6987 33.0882 12.0834 32.5906C11.5307 32.1459 11.051 31.7541 10.5087 31.32C10.2272 31.0977 9.98729 30.8965 9.70572 30.6635C8.60029 29.7529 8.72544 30.06 8.31872 29.1177L7.05686 26.1318C6.76486 25.4435 6.50415 24.8188 6.19129 24.1412C6.02444 23.7812 5.92015 23.4741 5.75329 23.1141C5.48215 22.5318 4.28286 19.9059 4.33501 19.5882L6.45201 10.9906L7.53658 9.22235C7.72429 8.90471 7.89115 8.65059 8.08929 8.31177C8.25615 8.02588 8.52729 7.70824 8.55858 7.39059C8.32915 7.32706 8.23529 7.17883 8.03715 7.04118L4.15772 4.05529C3.22958 3.28235 3.35472 3.71647 3.00015 2.64706C2.84372 2.17059 2.71858 1.8 2.56215 1.32353C2.44743 0.974118 2.19715 0.359998 2.17629 0.0211745H11.5307H11.562V0Z" fill="white"/>
<path fill-rule="evenodd" clip-rule="evenodd" d="M34.3324 3.2685C34.2263 3.46822 33.9822 3.74152 33.8336 3.93073L32.8466 5.13956C32.7086 5.33928 32.6768 5.81231 32.3266 5.47594C32.2523 5.16059 32.4964 5.20263 32.7405 4.8978L33.7275 3.67845C33.9079 3.45771 34.0883 3.27901 34.2157 3.05827L33.8124 2.41706C33.685 2.21734 33.7593 2.42757 33.685 2.17529C33.3136 2.2699 32.8572 3.07929 32.6025 3.3631C31.8065 4.24608 29.5035 7.43109 29.0684 7.6203C28.9623 7.66235 28.9623 7.65184 28.8455 7.69388L24.4199 9.155C23.9954 9.29165 23.0084 9.68057 22.6263 9.71211C22.69 9.95388 23.486 11.0681 23.6876 11.3624C23.8574 11.6147 24.7065 12.9287 24.8232 13.0128C25.1098 13.202 29.1427 13.8747 29.9599 14.0639C30.4799 14.1795 30.3632 14.3267 30.7134 15.3674C31.5306 17.7955 31.5412 17.0702 30.8195 18.2686L29.737 19.9819C29.5354 20.3078 29.27 20.6337 29.2488 20.8859L30.4162 20.5075C30.7771 20.3814 31.2653 20.2132 31.6155 20.0871C32.2629 19.8663 31.9021 20.1081 32.5813 19.4353C32.8678 19.1515 33.1438 18.9203 33.3773 18.6154C33.823 18.0373 34.81 17.1859 35.3937 16.5867L36.5505 15.3253C36.5399 15.01 36.4656 14.8943 36.3701 14.621C36.2746 14.3477 36.2428 14.1585 36.1472 13.8852C35.5211 12.0036 35.5848 12.4977 35.5848 10.9315L35.8076 5.51798C35.7652 5.1711 35.8607 5.46542 35.5954 5.0765C35.5847 5.05547 35.5211 4.96087 35.5105 4.93984C35.4362 4.82422 35.4149 4.8137 35.33 4.68757C35.2345 4.55091 35.2239 4.50887 35.1284 4.37222C34.8525 4.00431 34.619 3.56282 34.3324 3.2685ZM34.8312 12.9497C35.0435 13.6435 35.2982 14.3477 35.468 15.0415C35.2027 15.4409 34.4704 16.1242 34.1095 16.5026C33.6744 16.9651 33.1968 17.3961 32.7511 17.8691C32.4327 18.2055 32.2947 18.689 32.0825 18.3632C31.8914 18.0793 32.1462 18.0688 32.316 17.9532L34.6933 15.5566C35.3937 14.8313 35.2664 15.1676 34.4916 12.6974C34.4279 12.4977 33.9716 11.8144 34.4704 11.909C34.7463 11.9616 34.5553 12.0562 34.8312 12.9497Z" fill="white"/>
<path fill-rule="evenodd" clip-rule="evenodd" d="M67.8825 31.3294H73.2403L74.5537 26.7527H81.8085C81.8502 27.2188 82.2463 28.5537 82.3714 28.9775C82.5799 29.6343 82.9134 30.5878 82.976 31.3082H88.3337C88.3129 30.609 87.7917 29.0834 87.5624 28.1299L86.6659 24.9305C86.4783 24.3372 86.4158 23.9134 86.2281 23.3201C86.0614 22.7269 85.9154 22.2819 85.7695 21.731C85.6027 21.0953 85.4568 20.7351 85.29 20.163L83.9766 15.438C83.6639 14.3786 83.3929 13.3403 83.1011 12.2173C82.8509 11.2426 82.4965 10.0773 82.1629 9.03904C81.0163 5.50055 82.83 6.13621 75.596 6.13621C74.783 6.13621 74.8247 6.53879 74.6579 7.2592L73.7823 10.501C73.6155 11.0943 73.4279 11.5605 73.282 12.069L67.8825 31.3294ZM78.0352 14.2302L79.2443 17.8535C79.4528 18.4891 79.5779 19.1036 79.7446 19.6969C79.9114 20.2478 80.1824 20.9894 80.2033 21.6039H75.9921L78.0352 14.2302Z" fill="white"/>
<path fill-rule="evenodd" clip-rule="evenodd" d="M51.3463 6.53716V31.3294H67.4461V26.6C67.4461 26.2607 67.3409 26.1546 67.0042 26.1546H56.755V6.53716C56.755 6.19783 56.6498 6.0918 56.313 6.0918H51.7672C51.4515 6.0918 51.3463 6.19783 51.3463 6.53716Z" fill="white"/>
</svg>
