<svg width="651" height="637" viewBox="0 0 651 637" fill="none" xmlns="http://www.w3.org/2000/svg">
<mask id="mask0_72_1802" style="mask-type:alpha" maskUnits="userSpaceOnUse" x="0" y="0" width="651" height="637">
<path d="M0 0L496.093 57.6022C517.166 60.049 527.703 61.2724 536.171 65.8562C543.968 70.0766 550.503 76.2944 555.106 83.8724C560.104 92.1028 561.85 102.565 565.34 123.491L651 637H0V0Z" fill="#EE972D"/>
</mask>
<g mask="url(#mask0_72_1802)">
<path d="M0 0H651V637H0V0Z" fill="#EE972D"/>
</g>
<g style="mix-blend-mode:multiply">
<path d="M143 579.686L60.5472 579.686L60.5472 557.301L124.963 557.301L124.963 523.966L143 523.966L143 579.686Z" fill="#F6F7FB"/>
<path d="M143 484.429L143 508.585L60.5472 481.369L60.5472 450.772L143 423.556L143 447.712L83.2539 465.749L83.2539 466.393L143 484.429ZM110.47 488.938L110.47 443.525L127.218 443.525L127.218 488.938L110.47 488.938Z" fill="#F6F7FB"/>
<path d="M143 406.545L60.5472 406.545L60.5472 348.571L78.5837 348.571L78.5837 384.16L92.7552 384.16L92.7552 352.113L110.792 352.113L110.792 384.16L143 384.16L143 406.545Z" fill="#F6F7FB"/>
<path d="M101.773 251.392C110.953 251.392 118.696 253.177 125.004 256.746C131.284 260.316 136.048 265.134 139.296 271.2C142.517 277.265 144.127 284.029 144.127 291.491C144.127 299.006 142.503 305.796 139.256 311.862C135.981 317.901 131.204 322.706 124.923 326.275C118.616 329.818 110.899 331.59 101.773 331.59C92.5942 331.59 84.8643 329.818 78.5837 326.275C72.2763 322.706 67.5122 317.901 64.2914 311.862C61.0437 305.796 59.4199 299.006 59.4199 291.491C59.4199 284.029 61.0437 277.266 64.2914 271.2C67.5122 265.134 72.2763 260.316 78.5837 256.746C84.8643 253.177 92.5942 251.392 101.773 251.392ZM101.773 274.42C96.8349 274.42 92.6747 275.078 89.2929 276.393C85.8842 277.682 83.3075 279.601 81.5629 282.15C79.7915 284.673 78.9058 287.787 78.9058 291.491C78.9058 295.195 79.7915 298.321 81.5629 300.871C83.3075 303.394 85.8842 305.313 89.2929 306.628C92.6747 307.917 96.8349 308.561 101.773 308.561C106.712 308.561 110.886 307.917 114.294 306.628C117.676 305.313 120.253 303.394 122.024 300.871C123.769 298.321 124.641 295.195 124.641 291.491C124.641 287.787 123.769 284.673 122.024 282.15C120.253 279.601 117.676 277.682 114.294 276.393C110.886 275.078 106.712 274.42 101.773 274.42Z" fill="#F6F7FB"/>
<path d="M91.4669 154.988L91.4669 177.695C89.5881 177.856 87.8837 178.285 86.3539 178.983C84.824 179.654 83.5088 180.593 82.4084 181.801C81.2811 182.982 80.4222 184.418 79.8317 186.109C79.2144 187.8 78.9058 189.719 78.9058 191.866C78.9058 195.624 79.8183 198.804 81.6434 201.408C83.4686 203.984 86.0855 205.944 89.4941 207.286C92.9028 208.601 96.9959 209.258 101.773 209.258C106.819 209.258 111.047 208.587 114.455 207.245C117.837 205.877 120.387 203.904 122.105 201.327C123.796 198.751 124.641 195.65 124.641 192.027C124.641 189.96 124.386 188.108 123.876 186.471C123.339 184.834 122.574 183.411 121.581 182.204C120.588 180.996 119.394 180.016 117.998 179.265C116.576 178.486 114.979 177.963 113.207 177.695L113.368 154.988C116.858 155.256 120.414 156.236 124.037 157.927C127.634 159.618 130.962 162.02 134.022 165.133C137.055 168.22 139.497 172.045 141.349 176.607C143.201 181.17 144.127 186.471 144.127 192.51C144.127 200.079 142.503 206.87 139.256 212.882C136.008 218.867 131.23 223.604 124.923 227.094C118.616 230.556 110.899 232.287 101.773 232.287C92.5942 232.287 84.8643 230.516 78.5837 226.973C72.2763 223.43 67.5122 218.652 64.2914 212.64C61.0437 206.628 59.4199 199.918 59.4199 192.51C59.4199 187.303 60.1312 182.512 61.5537 178.137C62.9762 173.762 65.0563 169.924 67.794 166.623C70.5048 163.322 73.8464 160.665 77.8187 158.652C81.7911 156.639 86.3404 155.417 91.4669 154.988Z" fill="#F6F7FB"/>
<path d="M143 116.891L143 141.047L60.5472 113.831L60.5472 83.2332L143 56.0174L143 80.1734L83.2538 98.2099L83.2538 98.8541L143 116.891ZM110.47 121.4L110.47 75.9864L127.218 75.9864L127.218 121.4L110.47 121.4Z" fill="#F6F7FB"/>
</g>
</svg>
