<svg width="37" height="37" viewBox="0 0 37 37" fill="none" xmlns="http://www.w3.org/2000/svg">
<rect opacity="0.1" width="37" height="37" rx="18.5" fill="#EE972D"/>
<path d="M17.2468 9.75472C17.1697 9.75324 17.0935 9.77207 17.0259 9.80933C16.9584 9.84659 16.9018 9.90096 16.8618 9.96699L14.7022 12.558C14.6335 12.6402 14.5972 12.7447 14.6001 12.8518C14.6029 12.9589 14.6447 13.0613 14.7177 13.1398L20.4059 19.2611C20.4483 19.3232 20.5058 19.3733 20.573 19.4068C20.6403 19.4403 20.715 19.4561 20.79 19.4525C20.865 19.449 20.9379 19.4263 21.0017 19.3867C21.0655 19.347 21.1181 19.2916 21.1544 19.2259L26.761 13.1836C26.8108 13.1438 26.8513 13.0936 26.8798 13.0365C26.9083 12.9794 26.924 12.9168 26.9259 12.853C26.9277 12.7893 26.9157 12.7259 26.8907 12.6672C26.8656 12.6086 26.8281 12.556 26.7808 12.5133L24.6615 9.97043C24.6207 9.90127 24.5617 9.84461 24.491 9.80659C24.4202 9.76857 24.3404 9.75063 24.2602 9.75472C24.2441 9.75556 24.228 9.75728 24.2121 9.75988H20.8287C20.8176 9.75831 20.8064 9.75716 20.7952 9.75644C20.7818 9.75525 20.7683 9.75468 20.7548 9.75472C20.7545 9.75472 20.7542 9.75472 20.754 9.75472C20.7531 9.75472 20.7522 9.75472 20.7514 9.75472C20.7312 9.75506 20.7111 9.75678 20.6912 9.75988H17.301C17.2831 9.75705 17.265 9.75532 17.2468 9.75472ZM17.9515 10.6399H19.8207L18.6528 12.0415L17.9515 10.6399ZM21.6984 10.6399H23.5684L22.8672 12.0415L21.6984 10.6399ZM20.76 10.8874L22.0207 12.3999H19.4993L20.76 10.8874ZM17.1472 10.9982L17.8484 12.3999H15.9801L17.1472 10.9982ZM24.3728 10.9982L25.5398 12.3999H23.6715L24.3728 10.9982ZM16.0497 13.2799H18.2506L19.6282 17.1307L16.0497 13.2799ZM19.1839 13.2799H22.3361L20.7634 17.6919L19.1839 13.2799ZM23.2702 13.2799H25.4711L21.8969 17.1316L23.2702 13.2799ZM27.4296 19.433C27.3494 19.4342 27.2696 19.4416 27.1898 19.4545C26.9772 19.4889 26.768 19.5659 26.5754 19.6874L21.6915 22.6969C21.5788 22.6353 21.4406 22.5672 21.2584 22.4795C21.0491 22.3787 20.8302 22.2759 20.7067 22.22C20.042 21.9194 17.9228 21.0447 16.3144 20.3388C15.6264 20.0368 14.891 19.8825 14.1548 19.8756C13.4186 19.8686 12.6811 20.0093 11.9875 20.2984L9.15067 21.48C9.09608 21.5014 9.0463 21.5334 9.00426 21.5743C8.96222 21.6151 8.92876 21.6639 8.90585 21.7179C8.88294 21.7718 8.87103 21.8298 8.87084 21.8884C8.87065 21.9471 8.88217 22.0051 8.90473 22.0592C8.92728 22.1133 8.96042 22.1624 9.0022 22.2035C9.04397 22.2446 9.09354 22.277 9.14799 22.2987C9.20244 22.3204 9.26068 22.331 9.31929 22.3298C9.37789 22.3287 9.43568 22.3159 9.48927 22.2921L12.3261 21.1105C13.4918 20.6247 14.8038 20.6373 15.9604 21.1449C17.5842 21.8576 19.738 22.7477 20.344 23.0218C20.4529 23.071 20.6727 23.1744 20.8768 23.2727C21.081 23.371 21.2956 23.4798 21.3134 23.4901C21.5097 23.6043 21.64 23.8087 21.64 24.0547C21.64 24.4247 21.3499 24.7147 20.98 24.7147C20.9275 24.7147 20.8778 24.7089 20.8304 24.6975C20.8302 24.6975 20.8299 24.6975 20.8296 24.6975C20.8185 24.6949 20.4704 24.5971 20.0484 24.4732C19.6264 24.3493 19.0895 24.1902 18.5617 24.0332C17.506 23.7192 16.4863 23.4136 16.4863 23.4136C16.3745 23.3801 16.254 23.3924 16.1512 23.4478C16.0485 23.5031 15.972 23.597 15.9384 23.7088C15.9049 23.8206 15.9172 23.9411 15.9726 24.0439C16.0279 24.1466 16.1218 24.2232 16.2336 24.2567C16.2336 24.2567 17.2549 24.562 18.3116 24.8763C18.84 25.0334 19.3771 25.1927 19.8009 25.3171C20.2243 25.4415 20.4939 25.5222 20.6259 25.5535C20.7405 25.5809 20.859 25.5947 20.98 25.5947C21.8253 25.5947 22.52 24.9 22.52 24.0547C22.52 23.7942 22.4519 23.5493 22.3361 23.3337L27.0411 20.4342C27.0426 20.4333 27.044 20.4325 27.0454 20.4316C27.4137 20.1994 27.8875 20.3067 28.1197 20.6748C28.3451 21.0322 28.2509 21.4918 27.9031 21.7318C27.8976 21.7354 27.8921 21.7392 27.8868 21.743L20.9465 27.0015C20.4727 27.3607 19.8518 27.4573 19.2913 27.2585L14.166 25.4418C12.9809 24.9526 11.6246 25.1174 10.591 25.8757L9.05786 27.0007C9.00939 27.0341 8.96812 27.0769 8.9365 27.1266C8.90488 27.1763 8.88355 27.2318 8.87378 27.2899C8.864 27.3479 8.86599 27.4074 8.87961 27.4647C8.89323 27.522 8.91821 27.5759 8.95307 27.6234C8.98793 27.6709 9.03196 27.7108 9.08256 27.741C9.13315 27.7711 9.18928 27.7908 9.24762 27.7988C9.30595 27.8069 9.36531 27.8031 9.42217 27.7878C9.47903 27.7725 9.53224 27.7459 9.57864 27.7096L11.1118 26.5856C11.8988 26.0081 12.9277 25.8832 13.83 26.2556C13.8368 26.2583 13.8437 26.2609 13.8506 26.2633L18.9974 28.0878C19.8361 28.3853 20.7694 28.2403 21.4784 27.7028L28.4024 22.4563C29.0831 21.9865 29.2831 21.0894 28.924 20.362C28.9142 20.3065 28.8938 20.2534 28.8639 20.2056C28.545 19.6999 27.9905 19.4246 27.4296 19.433Z" fill="#EE972D"/>
</svg>
