<svg width="37" height="37" viewBox="0 0 37 37" fill="none" xmlns="http://www.w3.org/2000/svg">
<rect opacity="0.1" width="37" height="37" rx="18.5" fill="#EE972D"/>
<path d="M19.105 8.20117L18.5675 8.6363C18.5675 8.6363 17.5149 9.52255 16.4431 10.7351C15.3713 11.9477 14.1907 13.4707 14.1907 15.1632C14.1907 16.3246 14.4754 17.9755 14.805 19.5913L14.2418 19.9752C13.17 20.7175 12.6293 22.0229 12.8853 23.3026L13.3972 25.811L13.6275 27.014L14.6514 26.3485L16.9038 24.8384H21.3063L23.5587 26.3485L24.5825 27.014L24.8129 25.811L25.3248 23.3026C25.5807 22.0229 25.04 20.7175 23.9682 19.9752L23.4051 19.5913C23.7379 17.9691 24.0194 16.3118 24.0194 15.1632C24.0194 13.4835 22.8388 11.9797 21.767 10.7607C20.6952 9.54175 19.6169 8.6363 19.6169 8.6363L19.105 8.20117ZM19.105 10.428C19.441 10.7255 19.8249 11.0231 20.5384 11.8358C21.5174 12.9492 22.3813 14.4049 22.3813 15.1632C22.3813 16.1998 21.9941 18.4395 21.5878 20.3335C21.2519 21.8917 21.0311 22.7683 20.9223 23.2003H17.2877C17.179 22.7715 16.955 21.9077 16.6222 20.3591C16.2159 18.4746 15.8288 16.2286 15.8288 15.1632C15.8288 14.3665 16.699 12.9396 17.6717 11.8358C18.3883 11.0231 18.7755 10.7191 19.105 10.428ZM19.105 14.7537C18.19 14.7537 17.4413 15.5023 17.4413 16.4174C17.4413 17.3324 18.19 18.0555 19.105 18.0555C20.0201 18.0555 20.7687 17.3324 20.7687 16.4174C20.7687 15.5023 20.0201 14.7537 19.105 14.7537ZM15.1633 21.3062C15.4033 22.394 15.5824 23.1555 15.7008 23.6354L14.7538 24.2753L14.4978 22.9955C14.3698 22.3524 14.6258 21.6805 15.1633 21.3062ZM23.0212 21.3062H23.0468C23.5843 21.6805 23.8402 22.3524 23.7123 22.9955L23.4563 24.2753L22.5093 23.6354C22.6244 23.1555 22.7812 22.3876 23.0212 21.3062ZM16.6478 25.6574C16.6478 28.1274 18.5931 29.5736 18.5931 29.5736L19.105 29.9575L19.5913 29.5992C19.5913 29.5992 21.5622 28.1402 21.5622 25.6574H19.9241C19.9241 26.6621 19.489 27.318 19.105 27.7563C18.7211 27.3116 18.286 26.6461 18.286 25.6574H16.6478Z" fill="#EE972D"/>
</svg>
