<svg width="37" height="37" viewBox="0 0 37 37" fill="none" xmlns="http://www.w3.org/2000/svg">
<rect opacity="0.1" width="37" height="37" rx="18.5" fill="#EE972D"/>
<g clip-path="url(#clip0_402_180)">
<path d="M20.007 5.37948C19.7122 5.38972 19.4194 5.47776 19.188 5.69071C19.1819 5.69685 19.1778 5.70094 19.1716 5.70709C18.9751 5.90365 18.7089 6.24354 18.3362 6.72266C17.9636 7.20178 17.5316 7.78942 17.0913 8.37706C16.2109 9.55234 15.3735 10.6826 15.1749 10.9815C15.1278 11.0552 15.0991 11.1392 15.093 11.2272C15.009 11.4361 14.9844 11.6695 15.0111 11.866C15.0479 12.1261 15.1523 12.3841 15.2731 12.6523C15.0684 12.9267 15.0541 12.9389 14.8309 13.242C14.4173 13.7989 13.9975 14.3661 13.6679 14.8145C13.459 15.0991 13.373 15.2097 13.2584 15.3714C13.199 15.4042 13.1458 15.4513 13.0946 15.5025C13.07 15.527 13.0475 15.5557 13.029 15.5844C12.8796 15.8075 12.8652 16.0676 12.898 16.2723C12.9164 16.387 12.9533 16.4955 12.9963 16.5999C12.7915 16.9214 12.7363 17.0053 12.4721 17.4189C12.1875 17.8653 11.905 18.3198 11.6859 18.6638C11.5835 18.8235 11.4914 18.9525 11.4238 19.057C11.3972 19.0754 11.3665 19.0979 11.3419 19.1225C11.1945 19.2699 11.1453 19.4665 11.1453 19.6139C11.1453 19.7613 11.1822 19.8944 11.2272 20.007C11.3173 20.2302 11.4668 20.4268 11.6531 20.6131C11.8394 20.7994 12.0196 20.9325 12.2428 21.0226C12.3554 21.0676 12.4885 21.1045 12.6359 21.1045C12.7465 21.1045 12.8878 21.082 13.0127 21.0062C13.025 20.996 13.0352 20.9857 13.0454 20.9734L13.0782 20.9571C13.0966 20.9427 13.1109 20.9243 13.1273 20.9079L15.5844 19.1552C15.7011 19.1962 15.8116 19.2249 15.9283 19.2371C15.9959 19.2433 16.0696 19.2433 16.1413 19.2371C16.2293 19.2535 16.3194 19.2474 16.4034 19.2208V20.4493L10.7194 29.2291C10.6191 29.3908 10.613 29.5935 10.7051 29.7614C10.7972 29.9273 10.9713 30.0317 11.1617 30.0317H13.0946C13.2748 30.0317 13.4406 29.9375 13.5368 29.786L16.4034 25.3142V31.08C16.4034 31.3687 16.6388 31.6042 16.9275 31.6042H18.5C18.7887 31.6042 19.0242 31.3687 19.0242 31.08V25.3142L21.8907 29.786C21.987 29.9375 22.1528 30.0317 22.333 30.0317H24.2659C24.4563 30.0317 24.6303 29.9273 24.7225 29.7614C24.8146 29.5935 24.8085 29.3908 24.7081 29.2291L19.0242 20.4493V17.3207C19.2187 17.1773 19.3825 17.0483 19.5648 16.9111C19.8309 17.0238 20.0869 17.1139 20.3346 17.1405C20.6581 17.1773 21.0103 17.1528 21.2847 16.8784C21.297 16.8661 21.3072 16.8579 21.3174 16.8456C21.5324 16.7146 21.7679 16.5446 22.1201 16.2887C22.5951 15.9447 23.1889 15.5045 23.7745 15.0602C24.3601 14.6159 24.9375 14.1593 25.4125 13.7825C25.8875 13.4058 26.2213 13.1376 26.4117 12.9471C26.7106 12.6482 26.77 12.2305 26.7229 11.8497C26.6758 11.4688 26.5407 11.0655 26.3298 10.6375C25.908 9.78166 25.2057 8.81933 24.2823 7.86927C24.2761 7.86313 24.272 7.85904 24.2659 7.85289C23.3404 6.92741 22.3883 6.21078 21.5304 5.78899C21.1004 5.57809 20.6888 5.44091 20.3019 5.39586C20.2056 5.38358 20.1053 5.37539 20.007 5.37948ZM19.9743 6.4442C20.0173 6.43805 20.0828 6.43191 20.1872 6.4442C20.396 6.46877 20.6991 6.56295 21.0554 6.73904C21.7699 7.09121 22.6729 7.73414 23.5288 8.59C24.3887 9.47453 25.0276 10.3959 25.3797 11.1126C25.5558 11.4709 25.6664 11.78 25.6909 11.9807C25.7155 12.1814 25.6643 12.2203 25.6746 12.21C25.6029 12.2817 25.2241 12.595 24.7573 12.9635C24.2904 13.3321 23.7171 13.7846 23.1356 14.2248C22.5541 14.665 21.9788 15.1011 21.514 15.4369C21.4874 15.4554 21.4833 15.4574 21.4649 15.4697C21.4341 15.3776 21.3748 15.2854 21.3338 15.1912C21.3338 15.181 21.3338 15.1687 21.3338 15.1585C21.3318 15.1544 21.3359 15.1462 21.3338 15.1421C21.3215 15.1073 21.3051 15.0745 21.2847 15.0438C21.2744 15.0213 21.2642 14.9988 21.2519 14.9783C21.2458 14.9721 21.2417 14.968 21.2355 14.9619C21.2273 14.9455 21.2273 14.9291 21.2192 14.9128C20.8629 14.2207 20.263 13.4488 19.4992 12.6851C18.7355 11.9213 17.9636 11.3214 17.2715 10.9651C17.2449 10.9508 17.2162 10.9467 17.1896 10.9324C17.1732 10.9201 17.1569 10.9099 17.1405 10.8996C17.1302 10.8935 17.118 10.8894 17.1077 10.8832C17.0606 10.8587 17.0115 10.8423 16.9603 10.8341C16.8661 10.7952 16.774 10.7481 16.6818 10.7194C17.0402 10.2239 17.3391 9.78371 17.9267 8.99951C18.3649 8.41392 18.8072 7.83242 19.1716 7.36149C19.5299 6.9008 19.835 6.53634 19.9087 6.46058C19.9108 6.45853 19.9313 6.45034 19.9743 6.4442ZM17.0258 12.0462C17.5397 12.3493 18.1581 12.8181 18.7621 13.4222C19.3805 14.0405 19.8514 14.6589 20.1544 15.1748C20.0357 15.269 19.9005 15.3714 19.7286 15.5025C19.6139 15.5884 19.4501 15.7174 19.319 15.8137C19.315 15.8157 19.3068 15.8116 19.3027 15.8137C19.2105 15.8505 19.1307 15.914 19.0733 15.9939C18.7949 16.1986 18.5389 16.3788 18.238 16.5999C17.6974 16.9951 17.1548 17.3882 16.731 17.6974C16.6921 17.7261 16.6859 17.7199 16.6491 17.7465C16.6409 17.7302 16.6409 17.7138 16.6327 17.6974C16.4238 17.2981 16.0881 16.8743 15.6663 16.4525C15.2506 16.0369 14.8473 15.7113 14.4541 15.5025C14.4787 15.4676 14.4766 15.4717 14.5033 15.4369C14.8309 14.9906 15.2527 14.4214 15.6663 13.8644C16.3563 12.9328 16.8252 12.3165 17.0258 12.0462ZM14.2248 16.6163C14.4377 16.7555 14.6691 16.9296 14.9292 17.1896C15.1994 17.4599 15.3776 17.7056 15.5188 17.9267L15.3714 18.025C15.2445 18.0557 15.1339 18.1315 15.0602 18.2379L13.0454 19.6794C12.984 19.5914 12.9144 19.4992 12.8325 19.4173C12.7506 19.3354 12.6564 19.2842 12.5704 19.2208C12.7895 18.8768 13.072 18.4202 13.3567 17.9759C13.7948 17.292 14.0487 16.8927 14.2248 16.6163ZM17.9759 18.0905V20.482C17.9615 20.5517 17.9615 20.6254 17.9759 20.695V23.365C17.9533 23.4509 17.9533 23.541 17.9759 23.627V30.5559H17.4517V23.6762C17.4538 23.6537 17.4538 23.6332 17.4517 23.6107C17.4722 23.5308 17.4722 23.4448 17.4517 23.365V20.6786C17.4578 20.6295 17.4578 20.5803 17.4517 20.5312V18.5C17.4517 18.4939 17.4517 18.4898 17.4517 18.4836C17.6053 18.371 17.7998 18.2195 17.9759 18.0905ZM16.4034 22.3658V23.3813L12.8161 28.9834H12.1281L16.4034 22.3658ZM19.0242 22.3658L23.2994 28.9834H22.6115L19.0242 23.3813V22.3658Z" fill="#EE972D"/>
</g>
<defs>
<clipPath id="clip0_402_180">
<rect width="26.2083" height="26.2083" fill="white" transform="translate(5.39587 5.39575)"/>
</clipPath>
</defs>
</svg>
