<svg width="37" height="37" viewBox="0 0 37 37" fill="none" xmlns="http://www.w3.org/2000/svg">
<rect opacity="0.1" width="37" height="37" rx="18.5" fill="#EE972D"/>
<g clip-path="url(#clip0_402_123)">
<path d="M18.9625 8.9874C18.9453 8.99053 18.9281 8.99522 18.9125 8.9999C18.7266 9.04209 18.5953 9.20928 18.6 9.3999V10.5999H9V24.1999H18.6V24.8249L15.1125 28.3124C14.9531 28.4718 14.9531 28.728 15.1125 28.8874C15.2719 29.0468 15.5281 29.0468 15.6875 28.8874L18.6 25.9749V26.9999C18.5984 27.1437 18.6734 27.278 18.7984 27.3515C18.9234 27.4233 19.0766 27.4233 19.2016 27.3515C19.3266 27.278 19.4016 27.1437 19.4 26.9999V25.9749L22.3125 28.8874C22.4719 29.0468 22.7281 29.0468 22.8875 28.8874C23.0469 28.728 23.0469 28.4718 22.8875 28.3124L19.4 24.8374V24.1999H29V10.5999H19.4V9.3999C19.4047 9.28428 19.3578 9.17334 19.275 9.09522C19.1906 9.01553 19.0766 8.97647 18.9625 8.9874ZM9.8 11.3999H28.2V23.3999H19.075C19.0219 23.389 18.9656 23.389 18.9125 23.3999H9.8V11.3999ZM25.4 14.5999C24.9578 14.5999 24.6 14.9577 24.6 15.3999C24.6 15.4343 24.6078 15.4671 24.6125 15.4999L20.5125 18.6624C20.4172 18.6218 20.3109 18.5999 20.2 18.5999C20.0891 18.5999 19.9828 18.6218 19.8875 18.6624H19.875L16.6 16.2749C16.6016 16.2499 16.6 16.2249 16.6 16.1999C16.6 15.7577 16.2422 15.3999 15.8 15.3999C15.3578 15.3999 15 15.7577 15 16.1999C15 16.2296 15.0094 16.2577 15.0125 16.2874L12.9125 17.8624C12.8172 17.8218 12.7109 17.7999 12.6 17.7999C12.1578 17.7999 11.8 18.1577 11.8 18.5999C11.8 19.0421 12.1578 19.3999 12.6 19.3999C13.0422 19.3999 13.4 19.0421 13.4 18.5999C13.4 18.5702 13.3906 18.5421 13.3875 18.5124L15.4875 16.9374C15.5828 16.978 15.6891 16.9999 15.8 16.9999C15.9109 16.9999 16.0172 16.978 16.1125 16.9374H16.125L19.4 19.3249C19.3984 19.3499 19.4 19.3749 19.4 19.3999C19.4 19.8421 19.7578 20.1999 20.2 20.1999C20.6422 20.1999 21 19.8421 21 19.3999C21 19.3655 20.9922 19.3327 20.9875 19.2999L25.0875 16.1374H25.1C25.1922 16.1749 25.2938 16.1999 25.4 16.1999C25.8422 16.1999 26.2 15.8421 26.2 15.3999C26.2 14.9577 25.8422 14.5999 25.4 14.5999Z" fill="#EE972D"/>
</g>
<defs>
<clipPath id="clip0_402_123">
<rect width="20" height="20" fill="white" transform="translate(9 9)"/>
</clipPath>
</defs>
</svg>
