<svg width="36" height="36" viewBox="0 0 36 36" fill="none" xmlns="http://www.w3.org/2000/svg">
<circle cx="1" cy="1" r="1" transform="matrix(-1 0 0 1 20 17)" fill="#EE972D"/>
<path d="M14.4546 26.4853C13.8691 27.0708 12.9187 27.0708 12.3332 26.4853L4.9086 19.0607C4.83913 18.9912 4.77708 18.9143 4.7214 18.8321C4.69594 18.7939 4.67844 18.7531 4.6567 18.7133C4.63177 18.6672 4.60367 18.6232 4.58351 18.5744C4.56177 18.523 4.54957 18.4694 4.53419 18.4158C4.52253 18.3755 4.50661 18.3363 4.49866 18.2944C4.45994 18.0997 4.45995 17.9003 4.49866 17.7057C4.50714 17.6633 4.52305 17.6251 4.53419 17.5843C4.54957 17.5307 4.56177 17.4771 4.58351 17.4257C4.60367 17.3769 4.63177 17.3329 4.6567 17.2867C4.67844 17.247 4.69594 17.2061 4.7214 17.168C4.77708 17.0858 4.83913 17.0089 4.90861 16.9394L12.3332 9.51476C12.9187 8.92928 13.8691 8.92928 14.4545 9.51476C15.04 10.1002 15.04 11.0506 14.4545 11.6361L9.59036 16.5003L30.8789 16.5003C31.7073 16.5003 32.3787 17.1717 32.3787 18C32.3787 18.8284 31.7073 19.4998 30.8789 19.4998L9.59036 19.4998L14.4546 24.364C15.04 24.9495 15.04 25.8998 14.4546 26.4853Z" fill="#222222"/>
</svg>
