<svg width="36" height="36" viewBox="0 0 36 36" fill="none" xmlns="http://www.w3.org/2000/svg">
<circle cx="17" cy="18" r="1" fill="#EE972D"/>
<path d="M21.5454 26.4853C22.1309 27.0708 23.0813 27.0708 23.6668 26.4853L31.0914 19.0607C31.1609 18.9912 31.2229 18.9143 31.2786 18.8321C31.3041 18.7939 31.3216 18.7531 31.3433 18.7133C31.3682 18.6672 31.3963 18.6232 31.4165 18.5744C31.4382 18.523 31.4504 18.4694 31.4658 18.4158C31.4775 18.3755 31.4934 18.3363 31.5013 18.2944C31.5401 18.0997 31.5401 17.9003 31.5013 17.7057C31.4929 17.6633 31.4769 17.6251 31.4658 17.5843C31.4504 17.5307 31.4382 17.4771 31.4165 17.4257C31.3963 17.3769 31.3682 17.3329 31.3433 17.2867C31.3216 17.247 31.3041 17.2061 31.2786 17.168C31.2229 17.0858 31.1609 17.0089 31.0914 16.9394L23.6668 9.51476C23.0813 8.92928 22.1309 8.92928 21.5455 9.51476C20.96 10.1002 20.96 11.0506 21.5455 11.6361L26.4096 16.5003L5.12109 16.5003C4.29272 16.5003 3.62132 17.1717 3.62132 18C3.62132 18.8284 4.29272 19.4998 5.1211 19.4998L26.4096 19.4998L21.5454 24.364C20.96 24.9495 20.96 25.8998 21.5454 26.4853Z" fill="#222222"/>
</svg>
