<svg width="109" height="109" viewBox="0 0 109 109" fill="none" xmlns="http://www.w3.org/2000/svg">
<circle cx="54.5" cy="54.5" r="54.5" fill="#222222"/>
<path d="M15.8625 49.8209L10.4473 48.9019L10.5879 48.0935L15.2998 48.8916L15.7218 46.4666L16.4251 46.585L15.8625 49.8209Z" fill="white"/>
<path d="M16.8262 44.9919L16.5657 45.8234L11.9007 42.3558L12.182 41.4522L18.014 41.187L17.7535 42.0185L12.9999 42.1756L12.9869 42.2167L16.8262 44.9919ZM14.8128 44.2247L15.6541 41.5294L16.3209 41.7328L15.4796 44.4281L14.8128 44.2247Z" fill="white"/>
<path d="M18.3291 40.4791L13.3385 38.2111L14.1798 36.4039C14.3413 36.0538 14.5367 35.7912 14.7581 35.6136C14.9821 35.436 15.2165 35.3356 15.4692 35.3124C15.7192 35.2892 15.9693 35.333 16.2141 35.4437C16.4225 35.539 16.5788 35.6548 16.6856 35.7964C16.7923 35.938 16.8601 36.0899 16.8861 36.2546C16.9122 36.4194 16.9096 36.5867 16.8783 36.754L16.9278 36.7772C17.0111 36.6176 17.1388 36.4812 17.3107 36.3705C17.4826 36.2572 17.6806 36.1928 17.9098 36.1722C18.139 36.1516 18.3812 36.2006 18.6391 36.3164C18.8943 36.4322 19.0949 36.5944 19.2434 36.8055C19.3918 37.0166 19.4674 37.2689 19.47 37.5701C19.4726 37.8687 19.3866 38.2111 19.2095 38.5921L18.3291 40.4791ZM15.8416 38.4479L16.3053 37.4517C16.3834 37.2843 16.4199 37.1196 16.4173 36.9548C16.4147 36.7901 16.373 36.6433 16.2922 36.5095C16.2115 36.3756 16.0917 36.2726 15.9302 36.2006C15.7244 36.1079 15.5186 36.1002 15.3103 36.18C15.1045 36.2598 14.9326 36.4477 14.7945 36.7437L14.3231 37.7606L15.8416 38.4479ZM18.027 39.4416L18.5271 38.3681C18.6938 38.0129 18.7407 37.7246 18.6729 37.5057C18.6052 37.2869 18.4672 37.1325 18.2562 37.0372C18.0999 36.9651 17.9358 36.9394 17.7665 36.9574C17.5972 36.9754 17.4409 37.0398 17.2951 37.1505C17.1492 37.2612 17.0294 37.4156 16.9382 37.6139L16.4277 38.7157L18.027 39.4416Z" fill="white"/>
<path d="M20.6812 30.6476C21.1761 30.9591 21.5434 31.3169 21.783 31.7185C22.0226 32.1201 22.1373 32.5371 22.1268 32.9696C22.1164 33.3995 21.9836 33.814 21.7309 34.2079C21.4757 34.6043 21.1527 34.8978 20.7594 35.0883C20.3687 35.2788 19.9363 35.3509 19.4648 35.3046C18.9934 35.2582 18.5115 35.0806 18.0192 34.7691C17.5243 34.4576 17.157 34.0998 16.9174 33.6982C16.6778 33.2966 16.5632 32.8795 16.5736 32.447C16.584 32.0146 16.7168 31.6027 16.9721 31.2062C17.2274 30.8123 17.5504 30.5189 17.9411 30.3284C18.3318 30.1379 18.7642 30.0658 19.233 30.1096C19.7045 30.1559 20.1863 30.3335 20.6812 30.6476ZM20.2384 31.3298C19.8607 31.0929 19.5039 30.9514 19.1679 30.9076C18.8319 30.8638 18.5297 30.905 18.2614 31.0286C17.9932 31.1522 17.7744 31.3452 17.6051 31.6078C17.4357 31.8704 17.3498 32.1484 17.3498 32.4393C17.3498 32.7302 17.441 33.0185 17.6207 33.3017C17.803 33.5849 18.0817 33.8449 18.4568 34.0817C18.8345 34.3186 19.1913 34.4602 19.5273 34.5039C19.8633 34.5477 20.1655 34.5065 20.4312 34.3829C20.6968 34.2594 20.9156 34.0663 21.0876 33.8037C21.2569 33.5411 21.3428 33.2631 21.3428 32.9722C21.3428 32.6813 21.2543 32.393 21.0719 32.1098C20.8948 31.8292 20.6161 31.5692 20.2384 31.3298Z" fill="white"/>
<path d="M23.6324 31.3272L19.444 27.8158L20.7099 26.3407C20.986 26.0189 21.2699 25.8001 21.5643 25.6817C21.8586 25.5633 22.1477 25.5349 22.4368 25.5942C22.7234 25.6534 22.9969 25.7924 23.2547 26.0086C23.51 26.2223 23.6897 26.4643 23.7939 26.7346C23.8981 27.0023 23.9111 27.2881 23.8382 27.5918C23.7626 27.8956 23.5881 28.2071 23.3146 28.5263L22.3561 29.6436L21.8117 29.1879L22.7234 28.1273C22.8979 27.9239 23.0099 27.736 23.0594 27.5584C23.1089 27.3807 23.1036 27.216 23.0437 27.0641C22.9838 26.9122 22.8744 26.768 22.7182 26.6368C22.5593 26.5029 22.3978 26.4179 22.2285 26.3819C22.0618 26.3459 21.8925 26.3639 21.7205 26.4385C21.5486 26.5132 21.3741 26.6548 21.197 26.8607L20.525 27.6459L24.1716 30.7042L23.6324 31.3272ZM23.497 27.6974L26.2658 28.2586L25.6563 28.9691L22.9057 28.3873L23.497 27.6974Z" fill="white"/>
<path d="M27.1669 27.3988L26.5158 27.9832L24.2783 22.6543L24.9868 22.0159L30.1467 24.7138L29.4956 25.2981L25.3202 23.0456L25.2889 23.0739L27.1669 27.3988ZM25.8255 25.7281L27.9353 23.8282L28.4042 24.3379L26.2944 26.2378L25.8255 25.7281Z" fill="white"/>
<path d="M27.2633 20.9785L26.8465 20.407L30.2925 17.9485L30.7093 18.52L29.3184 19.5111L32.1158 23.3417L31.4464 23.8205L28.649 19.9899L27.2633 20.9785Z" fill="white"/>
<path d="M36.9841 17.3483C37.2628 17.8581 37.406 18.3472 37.4191 18.8131C37.4321 19.2791 37.3253 19.6987 37.1039 20.072C36.8825 20.4453 36.5647 20.7413 36.148 20.9627C35.7286 21.1867 35.3014 21.2871 34.8664 21.2639C34.4315 21.2433 34.0173 21.0966 33.6292 20.8314C33.2411 20.5663 32.9077 20.1775 32.629 19.6678C32.3503 19.1581 32.207 18.669 32.194 18.203C32.1836 17.7371 32.2878 17.3175 32.5092 16.9442C32.7306 16.5709 33.051 16.2748 33.4677 16.0509C33.8845 15.8295 34.3116 15.7291 34.7466 15.7497C35.1816 15.7703 35.5932 15.9144 35.9839 16.1822C36.372 16.4499 36.7054 16.8361 36.9841 17.3483ZM32.9494 15.796L32.9155 14.4265L33.6605 14.03L33.5146 15.4948L32.9494 15.796ZM36.26 17.7319C36.049 17.3432 35.8041 17.0497 35.5333 16.8489C35.2598 16.6507 34.9784 16.54 34.6815 16.5194C34.3846 16.4988 34.1007 16.5632 33.8246 16.7099C33.5459 16.8592 33.3349 17.06 33.1916 17.3149C33.0484 17.5697 32.9858 17.8632 33.0041 18.1979C33.0223 18.5325 33.1395 18.8929 33.3505 19.2817C33.5615 19.6704 33.8037 19.9639 34.0772 20.1647C34.3507 20.3629 34.632 20.4736 34.9264 20.4942C35.2207 20.5148 35.5072 20.4504 35.7859 20.3037C36.062 20.1569 36.273 19.9536 36.4188 19.7013C36.5621 19.4464 36.6272 19.153 36.6064 18.8183C36.5882 18.4836 36.4735 18.1206 36.26 17.7319Z" fill="white"/>
<path d="M39.2268 19.3615L37.3019 14.2772L39.1356 13.6001C39.5341 13.4534 39.891 13.3993 40.2061 13.4354C40.5213 13.4714 40.7896 13.5872 41.011 13.7777C41.2324 13.9682 41.4017 14.2205 41.5215 14.5346C41.6387 14.8461 41.6778 15.1447 41.6361 15.4279C41.5944 15.7111 41.4668 15.9685 41.2506 16.1976C41.0344 16.4267 40.7297 16.6147 40.3312 16.7614L38.9428 17.2763L38.6928 16.6147L40.0108 16.1281C40.2608 16.0354 40.4536 15.9247 40.5838 15.7934C40.7141 15.6647 40.7922 15.518 40.8156 15.3532C40.8391 15.191 40.813 15.0134 40.7401 14.8229C40.6672 14.6298 40.5682 14.478 40.4406 14.3647C40.3129 14.2514 40.1566 14.1871 39.9691 14.169C39.7816 14.151 39.5602 14.1922 39.3049 14.2849L38.3307 14.6453L40.0056 19.0731L39.2268 19.3615ZM40.899 16.1281L43.0375 17.9533L42.1519 18.2802L40.0368 16.4473L40.899 16.1281Z" fill="white"/>
<path d="M43.2042 12.3232L44.6577 17.5594L43.858 17.7757L42.4046 12.5395L43.2042 12.3232Z" fill="white"/>
<path d="M50.0884 13.7471C50.1847 14.3186 50.1639 14.8283 50.0207 15.2737C49.88 15.7191 49.643 16.082 49.3122 16.3652C48.9814 16.6458 48.5829 16.826 48.1166 16.9033C47.6478 16.9805 47.2102 16.9393 46.8064 16.7823C46.4027 16.6252 46.0589 16.3549 45.775 15.9791C45.4937 15.6032 45.3035 15.1295 45.2071 14.5606C45.1108 13.9891 45.1316 13.4794 45.2749 13.034C45.4181 12.5887 45.6526 12.2257 45.9833 11.9425C46.3141 11.6593 46.7127 11.4817 47.1815 11.4045C47.6478 11.3272 48.0853 11.3684 48.4891 11.528C48.8954 11.6877 49.2366 11.9554 49.5179 12.3312C49.7993 12.7071 49.992 13.1756 50.0884 13.7471ZM49.2783 13.881C49.2054 13.4459 49.0699 13.0907 48.8772 12.8152C48.6844 12.5398 48.4526 12.3467 48.1791 12.2334C47.9082 12.1201 47.6165 12.0892 47.3065 12.1407C46.994 12.1922 46.7283 12.3158 46.5095 12.5114C46.2907 12.7071 46.1344 12.9645 46.0433 13.2889C45.9521 13.6107 45.9443 13.9917 46.0172 14.4267C46.0901 14.8618 46.2256 15.2171 46.4183 15.4925C46.6111 15.768 46.8429 15.961 47.1138 16.0769C47.3847 16.1902 47.6764 16.2211 47.989 16.1696C48.2989 16.1181 48.5646 15.9945 48.7834 15.7989C49.0022 15.6032 49.1585 15.3458 49.2497 15.0214C49.346 14.697 49.3538 14.316 49.2783 13.881Z" fill="white"/>
<path d="M55.4046 16.2982L53.6282 16.2493L53.7819 10.8226L55.6156 10.8741C56.1548 10.8895 56.6132 11.0105 56.9935 11.2371C57.3738 11.4636 57.6603 11.7828 57.8557 12.1921C58.051 12.6015 58.1396 13.088 58.124 13.6518C58.1083 14.2181 57.9911 14.6995 57.7697 15.1011C57.5509 15.5027 57.241 15.8065 56.8398 16.0124C56.4387 16.2184 55.9621 16.3136 55.4046 16.2982ZM54.4748 15.5568L55.3786 15.5825C55.798 15.5928 56.147 15.5259 56.4283 15.3766C56.7096 15.2273 56.9232 15.0059 57.0691 14.7124C57.2149 14.4189 57.2931 14.056 57.3061 13.6286C57.3191 13.2039 57.2592 12.8409 57.1316 12.5397C57.0039 12.2385 56.806 12.0094 56.5403 11.8472C56.2746 11.685 55.9412 11.6 55.5401 11.5897L54.5868 11.564L54.4748 15.5568Z" fill="white"/>
<path d="M59.0538 16.5019L59.903 11.137L63.3047 11.6621L63.1953 12.3598L60.6114 11.9607L60.3536 13.5955L62.7603 13.9662L62.6509 14.6612L60.2442 14.2905L59.9837 15.9329L62.5988 16.3371L62.4894 17.0348L59.0538 16.5019Z" fill="white"/>
<path d="M65.998 17.9201L65.1671 17.6344L68.8397 13.1499L69.7435 13.4614L69.8034 19.2305L68.9725 18.9447L68.9856 14.244L68.9439 14.2311L65.998 17.9201ZM66.8445 15.9611L69.5404 16.8878L69.3111 17.5391L66.6153 16.6124L66.8445 15.9611Z" fill="white"/>
<path d="M70.5041 19.5651L72.9734 14.7151L74.7706 15.6084C75.1196 15.7809 75.3775 15.9817 75.5494 16.2082C75.7213 16.4347 75.8125 16.6716 75.8307 16.9213C75.8463 17.1684 75.7943 17.413 75.6718 17.6524C75.5676 17.8532 75.4452 18.0051 75.2994 18.1055C75.1535 18.2059 74.9972 18.2677 74.8305 18.2883C74.6638 18.3089 74.4945 18.3011 74.3252 18.2625L74.3018 18.3089C74.4606 18.399 74.5935 18.5277 74.7003 18.7027C74.8071 18.8778 74.867 19.076 74.88 19.3025C74.893 19.5291 74.8357 19.7685 74.7081 20.0182C74.5831 20.2653 74.4111 20.4584 74.1924 20.5974C73.9736 20.7365 73.7157 20.8008 73.4109 20.7931C73.1088 20.7854 72.7676 20.6875 72.3873 20.4996L70.5041 19.5651ZM71.5642 19.3051L72.6321 19.838C72.9864 20.0156 73.2755 20.0723 73.4969 20.0131C73.7183 19.9539 73.8824 19.8226 73.9866 19.6192C74.0647 19.4673 74.096 19.3051 74.083 19.1404C74.0699 18.973 74.01 18.816 73.9032 18.6693C73.7964 18.5225 73.6454 18.399 73.4474 18.3011L72.3534 17.7554L71.5642 19.3051ZM72.6452 17.1813L73.6376 17.6756C73.8043 17.7579 73.9684 17.8017 74.1351 17.8043C74.3018 17.8069 74.4528 17.7708 74.5883 17.6962C74.7237 17.6215 74.8331 17.5057 74.9139 17.3486C75.0154 17.1478 75.0311 16.9445 74.9581 16.7385C74.8852 16.5326 74.7029 16.3549 74.4085 16.2082L73.3979 15.7062L72.6452 17.1813Z" fill="white"/>
<path d="M80.3603 22.2374C80.0269 22.7136 79.6544 23.0637 79.2376 23.2877C78.8209 23.5117 78.3963 23.6095 77.9613 23.5838C77.5263 23.558 77.1122 23.4139 76.7241 23.1487C76.3334 22.881 76.0469 22.5514 75.8671 22.1602C75.6874 21.7663 75.6301 21.3389 75.6926 20.8756C75.7551 20.4122 75.9531 19.9411 76.2839 19.4648C76.6173 18.9886 76.9898 18.6385 77.4065 18.4145C77.8233 18.1931 78.2479 18.0927 78.6828 18.1184C79.1178 18.1442 79.532 18.2884 79.9227 18.5561C80.3134 18.8212 80.5973 19.1508 80.777 19.5446C80.9568 19.9385 81.0141 20.3658 80.9515 20.8292C80.8916 21.2875 80.6937 21.7586 80.3603 22.2374ZM79.6857 21.7766C79.9383 21.4136 80.0946 21.0661 80.1493 20.7365C80.204 20.407 80.1753 20.1058 80.0581 19.8381C79.9435 19.5704 79.756 19.3464 79.4955 19.1714C79.235 18.9937 78.9563 18.901 78.662 18.8882C78.3677 18.8779 78.0733 18.9577 77.7816 19.125C77.4899 19.2923 77.2164 19.5601 76.9611 19.9231C76.7059 20.286 76.5522 20.6336 76.4975 20.9631C76.4428 21.2926 76.4714 21.5938 76.586 21.8615C76.7006 22.1293 76.8882 22.3532 77.1487 22.5309C77.4091 22.7085 77.6852 22.8012 77.9796 22.8115C78.2739 22.8218 78.5682 22.7445 78.86 22.5746C79.1517 22.4047 79.4304 22.1396 79.6857 21.7766Z" fill="white"/>
<path d="M79.566 25.1256L83.2647 21.1096L84.7129 22.4122C85.0281 22.6954 85.239 22.9837 85.3484 23.2798C85.4578 23.5733 85.4787 23.8616 85.4057 24.1448C85.3354 24.4254 85.1869 24.6905 84.9577 24.9377C84.7311 25.1822 84.4811 25.3521 84.205 25.4448C83.9289 25.5375 83.6398 25.5426 83.3376 25.4577C83.0329 25.3727 82.7255 25.1899 82.4103 24.9068L81.3137 23.9208L81.793 23.3982L82.8349 24.3353C83.0329 24.5129 83.2204 24.6313 83.3975 24.6879C83.5746 24.7446 83.7413 24.7446 83.8976 24.6905C84.0539 24.6365 84.2024 24.5335 84.3404 24.3816C84.4811 24.2297 84.5722 24.0727 84.6139 23.9079C84.6582 23.7432 84.6452 23.5758 84.5748 23.4034C84.5045 23.2309 84.3691 23.0532 84.1659 22.873L83.3949 22.1805L80.1755 25.6765L79.566 25.1256ZM83.2386 25.1179L82.5744 27.8312L81.8764 27.2031L82.5614 24.5052L83.2386 25.1179Z" fill="white"/>
<path d="M84.2648 29.7413L83.1161 28.3975L87.3123 24.8938L88.4975 26.2788C88.8439 26.6855 89.0601 27.1051 89.1408 27.5351C89.2216 27.9676 89.1747 28.3897 88.995 28.8068C88.8153 29.2238 88.5079 29.6126 88.0729 29.9781C87.6353 30.3437 87.1925 30.5779 86.7445 30.6835C86.2965 30.789 85.8589 30.7633 85.4369 30.6062C85.015 30.4492 84.6243 30.1635 84.2648 29.7413ZM84.2049 28.5622L84.7884 29.2444C85.0593 29.5611 85.3432 29.7722 85.6427 29.8803C85.9423 29.9884 86.2522 29.9987 86.57 29.9112C86.8878 29.8236 87.2134 29.6409 87.5468 29.3628C87.875 29.0874 88.112 28.8042 88.2526 28.5082C88.3933 28.2121 88.4376 27.9135 88.3803 27.6123C88.323 27.3111 88.1667 27.0073 87.9088 26.7036L87.2915 25.9827L84.2049 28.5622Z" fill="white"/>
<path d="M86.6507 32.7252L86.1741 31.9941L91.8628 30.6992L92.3811 31.4947L88.8309 36.077L88.3542 35.3459L91.2949 31.6491L91.2715 31.6131L86.6507 32.7252ZM88.5392 31.6955L90.0837 34.0664L89.4977 34.4397L87.9531 32.0688L88.5392 31.6955Z" fill="white"/>
<path d="M94.0507 38.2752C94.1758 38.1593 94.2799 38.0358 94.3607 37.9045C94.4414 37.7732 94.4987 37.6342 94.53 37.4874C94.5612 37.3407 94.5691 37.1914 94.5456 37.0318C94.5248 36.8747 94.4753 36.7151 94.3972 36.5504C94.2669 36.2724 94.0742 36.0587 93.8241 35.9016C93.5741 35.7472 93.2797 35.6674 92.9411 35.6674C92.6025 35.6674 92.2326 35.7601 91.8315 35.948C91.4278 36.1359 91.1178 36.3573 90.9016 36.6173C90.6854 36.8747 90.5578 37.1528 90.5213 37.4437C90.4849 37.7371 90.5344 38.0255 90.6724 38.3138C90.8 38.5815 90.9641 38.7875 91.1699 38.9368C91.3757 39.0861 91.6049 39.1659 91.8576 39.1839C92.1102 39.2019 92.3759 39.1453 92.6494 39.0166L92.7041 39.2251L92.0373 37.8195L92.6572 37.5312L93.5741 39.462L93.0088 39.7245C92.5921 39.9176 92.1884 40 91.7977 39.9665C91.4069 39.9331 91.0553 39.8018 90.7427 39.5701C90.4302 39.3384 90.1775 39.0269 89.99 38.6279C89.779 38.1825 89.6983 37.7449 89.7451 37.315C89.792 36.8825 89.9639 36.486 90.2557 36.123C90.5474 35.7601 90.9563 35.4563 91.4799 35.2117C91.8758 35.029 92.2587 34.9157 92.6259 34.8796C92.9932 34.8436 93.3344 34.8719 93.6496 34.9646C93.9648 35.0598 94.2435 35.2143 94.4883 35.428C94.7332 35.6416 94.9311 35.9068 95.0822 36.226C95.2072 36.4912 95.2854 36.7563 95.3166 37.0241C95.3479 37.2918 95.3322 37.5466 95.2723 37.7938C95.2124 38.0409 95.1108 38.27 94.9676 38.4811C94.8243 38.6922 94.6394 38.875 94.418 39.0295L94.0507 38.2752Z" fill="white"/>
<path d="M91.3626 41.622L96.5981 39.9771L97.6426 43.2207L96.9627 43.4344L96.1709 40.9707L94.5768 41.4727L95.314 43.7665L94.6367 43.9801L93.8996 41.6864L92.2977 42.191L93.1 44.6855L92.4201 44.8992L91.3626 41.622Z" fill="white"/>
<path d="M98.8851 49.2677L93.4777 50.2228L93.3449 49.4814L96.8196 46.0627L96.8118 46.0137L92.8448 46.714L92.6989 45.9082L98.1063 44.9531L98.2417 45.6997L94.7618 49.121L94.7697 49.1699L98.7418 48.4671L98.8851 49.2677Z" fill="white"/>
<path d="M97.7599 54.1796C98.0125 54.1409 98.2053 54.0148 98.3355 53.8037C98.4657 53.5926 98.5257 53.3326 98.5126 53.0211C98.5022 52.7997 98.4579 52.6066 98.3824 52.447C98.3043 52.2874 98.2027 52.1664 98.075 52.0815C97.95 51.9965 97.8067 51.9579 97.6531 51.9656C97.5228 51.9708 97.4108 52.0068 97.3197 52.0712C97.2285 52.1355 97.153 52.2205 97.0931 52.3235C97.0331 52.4264 96.9863 52.5346 96.9498 52.653C96.9133 52.7688 96.8847 52.8821 96.8612 52.9876L96.744 53.5231C96.7076 53.6982 96.6581 53.8784 96.593 54.0637C96.5278 54.2491 96.4393 54.4215 96.3247 54.5812C96.2127 54.7408 96.0694 54.8746 95.8975 54.9776C95.7256 55.0806 95.5146 55.1398 95.2698 55.1501C94.9598 55.163 94.6785 55.096 94.431 54.9493C94.1836 54.8025 93.983 54.5812 93.8294 54.2877C93.6757 53.9942 93.5923 53.6364 93.5715 53.2116C93.5533 52.8049 93.6027 52.4522 93.72 52.1484C93.8372 51.8472 94.0117 51.6052 94.2461 51.4276C94.4779 51.25 94.7592 51.1444 95.09 51.1135L95.1265 51.9347C94.9285 51.9579 94.767 52.03 94.6394 52.1484C94.5118 52.2668 94.4232 52.4136 94.3659 52.5938C94.3112 52.7714 94.2878 52.967 94.2956 53.1756C94.306 53.4073 94.3529 53.6106 94.4337 53.7883C94.517 53.9659 94.6264 54.1049 94.7644 54.2027C94.9025 54.3005 95.0614 54.3469 95.2385 54.3392C95.4 54.3314 95.5328 54.28 95.6318 54.1847C95.7308 54.0895 95.8115 53.9633 95.8714 53.8063C95.9314 53.6492 95.9835 53.4716 96.0277 53.276L96.1762 52.6272C96.2778 52.187 96.4367 51.8369 96.6581 51.5718C96.8795 51.3092 97.1816 51.1676 97.5619 51.1521C97.8771 51.1393 98.1584 51.2114 98.4006 51.371C98.6429 51.5306 98.8382 51.752 98.9815 52.0351C99.1247 52.3183 99.2055 52.6427 99.2211 53.0057C99.2367 53.3738 99.1872 53.7007 99.0674 53.9865C98.9502 54.2748 98.7809 54.5039 98.5595 54.6764C98.3381 54.8489 98.0802 54.9441 97.7859 54.9647L97.7599 54.1796Z" fill="white"/>
<path d="M93.3656 59.9797L93.613 58.2395L99.0543 58.9938L98.799 60.7907C98.7235 61.3184 98.5516 61.756 98.2807 62.1036C98.0098 62.4511 97.6582 62.6982 97.2258 62.845C96.7934 62.9917 96.2933 63.0252 95.7281 62.948C95.1602 62.8707 94.6888 62.7008 94.3111 62.4408C93.9334 62.1808 93.6625 61.8436 93.4984 61.4265C93.3317 61.0069 93.2901 60.5255 93.3656 59.9797ZM94.2147 59.1508L94.0897 60.0364C94.0324 60.4457 94.0611 60.7984 94.1809 61.0893C94.3007 61.3802 94.4986 61.617 94.7774 61.7921C95.0561 61.9671 95.4103 62.0856 95.8427 62.1448C96.2699 62.204 96.6423 62.186 96.9575 62.0933C97.2753 62.0006 97.5279 61.8333 97.7207 61.5887C97.9134 61.3467 98.0358 61.0275 98.0905 60.6362L98.2234 59.7017L94.2147 59.1508Z" fill="white"/>
<path d="M92.7536 63.5476L98.0515 64.9841L97.1399 68.2664L96.4522 68.081L97.1425 65.5891L95.5276 65.1514L94.8842 67.4735L94.1992 67.2881L94.8425 64.9661L93.2198 64.5259L92.5191 67.0487L91.8315 66.8633L92.7536 63.5476Z" fill="white"/>
<path d="M90.7324 69.7876L95.7074 72.0942L94.2436 75.1757L93.5976 74.8771L94.7072 72.537L93.1913 71.8342L92.1572 74.0147L91.5138 73.716L92.5479 71.5356L91.0241 70.8302L89.8989 73.1986L89.2529 72.9L90.7324 69.7876Z" fill="white"/>
<path d="M91.0058 80.4482L86.3773 77.5237L86.7888 76.8905L91.6883 76.7102L91.7143 76.6691L88.3204 74.5246L88.7658 73.8347L93.3943 76.7592L92.9802 77.3976L88.0755 77.5778L88.0469 77.6216L91.446 79.7686L91.0058 80.4482Z" fill="white"/>
<path d="M86.8096 83.3004C87.0232 83.442 87.2498 83.478 87.4895 83.4111C87.7317 83.3442 87.9531 83.1923 88.1563 82.9554C88.3021 82.7855 88.4011 82.6156 88.4532 82.4457C88.5053 82.2758 88.5131 82.1188 88.4793 81.972C88.4428 81.8253 88.3673 81.7017 88.2474 81.6039C88.1485 81.5215 88.0417 81.4726 87.9297 81.4572C87.8177 81.4443 87.7057 81.4546 87.591 81.4906C87.4764 81.5267 87.367 81.5756 87.2603 81.6348C87.1535 81.6966 87.0545 81.7584 86.9659 81.8227L86.5127 82.1394C86.3668 82.2449 86.2053 82.3427 86.0308 82.4354C85.8563 82.5281 85.6714 82.595 85.4786 82.6362C85.2859 82.6774 85.0905 82.68 84.8926 82.6414C84.6946 82.6028 84.5019 82.5023 84.3117 82.3453C84.0747 82.1471 83.9158 81.9103 83.8351 81.6348C83.7543 81.3594 83.7595 81.0633 83.8481 80.7467C83.9366 80.43 84.1216 80.1082 84.3977 79.7839C84.6634 79.4724 84.9421 79.2458 85.2364 79.1042C85.5307 78.9626 85.8225 78.9009 86.1168 78.9266C86.4111 78.9523 86.6898 79.063 86.9529 79.2613L86.4163 79.8894C86.2548 79.7761 86.0855 79.7195 85.9136 79.7195C85.7391 79.7221 85.5724 79.7684 85.4083 79.8637C85.2442 79.9563 85.0957 80.0851 84.9577 80.2447C84.8066 80.4223 84.6998 80.6025 84.6373 80.7878C84.5748 80.9732 84.5618 81.1483 84.5956 81.313C84.6295 81.4778 84.7154 81.6168 84.8509 81.7301C84.9759 81.833 85.1062 81.8845 85.2442 81.8819C85.3823 81.8794 85.5281 81.8407 85.6818 81.7661C85.8355 81.6914 85.9944 81.5962 86.1611 81.4803L86.7159 81.1045C87.0909 80.8496 87.4504 80.6977 87.7942 80.654C88.138 80.6076 88.4558 80.708 88.7475 80.9526C88.9898 81.1534 89.1461 81.3954 89.2138 81.676C89.2815 81.9566 89.2737 82.2501 89.1851 82.5538C89.0966 82.8576 88.9325 83.1511 88.6954 83.4291C88.4558 83.7097 88.1927 83.9157 87.9088 84.047C87.6249 84.1782 87.3436 84.2349 87.0623 84.2117C86.781 84.1885 86.5257 84.0881 86.2965 83.9054L86.8096 83.3004Z" fill="white"/>
<path d="M85.6739 86.5081L81.8111 82.6492L82.3998 82.0725L86.2626 85.9314L85.6739 86.5081Z" fill="white"/>
<path d="M80.9724 90.5034L77.5107 86.2867L78.102 85.813L82.8087 87.1645L82.8478 87.1336L80.3082 84.0419L80.9516 83.5244L84.4132 87.7412L83.8167 88.22L79.1048 86.8659L79.0658 86.8968L81.6079 89.9937L80.9724 90.5034Z" fill="white"/>
<path d="M73.8486 91.7029C73.549 91.2035 73.3823 90.7221 73.3537 90.2562C73.3224 89.7902 73.411 89.3654 73.6141 88.987C73.8199 88.606 74.1247 88.2971 74.531 88.0577C74.9399 87.8183 75.3619 87.6999 75.7995 87.7024C76.2371 87.705 76.6538 87.8337 77.055 88.0834C77.4561 88.3331 77.8051 88.7064 78.1047 89.2033C78.4042 89.7027 78.5709 90.1841 78.5995 90.65C78.6308 91.116 78.5422 91.5408 78.3391 91.9192C78.1333 92.3002 77.8286 92.6091 77.4196 92.8511C77.0133 93.0905 76.5913 93.2089 76.1537 93.2038C75.7187 93.1986 75.2994 93.0725 74.9009 92.8254C74.4997 92.5756 74.1481 92.2024 73.8486 91.7029ZM74.5544 91.2885C74.7836 91.6695 75.0363 91.9527 75.3176 92.1406C75.5989 92.3285 75.8854 92.4263 76.1824 92.4341C76.4767 92.4418 76.7606 92.3671 77.0315 92.2075C77.3024 92.0479 77.5056 91.8368 77.6384 91.5768C77.7712 91.3168 77.8207 91.0207 77.7869 90.6861C77.753 90.354 77.6228 89.9962 77.3936 89.6177C77.1643 89.2393 76.9117 88.9536 76.6304 88.7656C76.3491 88.5777 76.0626 88.4799 75.7682 88.4696C75.4739 88.4619 75.19 88.5365 74.9191 88.6961C74.6482 88.8557 74.4476 89.0643 74.3122 89.3243C74.1794 89.5843 74.1273 89.8803 74.1611 90.215C74.195 90.5522 74.3252 90.91 74.5544 91.2885Z" fill="white"/>
<path d="M69.6159 90.6169L71.5095 95.7141L68.3109 96.8751L68.0661 96.2135L70.4859 95.3357L69.9076 93.7834L67.7171 94.5788L67.4722 93.9198L69.6628 93.1243L68.8371 90.9027L69.6159 90.6169Z" fill="white"/>
<path d="M61.411 95.7705C61.2833 95.2041 61.2781 94.697 61.3953 94.2439C61.5125 93.7908 61.7287 93.4149 62.0413 93.1163C62.3565 92.8177 62.7446 92.6169 63.2056 92.5139C63.6692 92.411 64.1094 92.429 64.521 92.5654C64.9351 92.7044 65.292 92.9516 65.5941 93.312C65.8963 93.6724 66.1098 94.1358 66.2401 94.6995C66.3677 95.2659 66.3755 95.773 66.2583 96.2261C66.1411 96.6792 65.9249 97.0551 65.6124 97.3537C65.2972 97.6523 64.9091 97.8531 64.4454 97.9561C63.9818 98.059 63.5442 98.041 63.1327 97.9046C62.7185 97.7681 62.3617 97.5184 62.0595 97.158C61.7522 96.7976 61.5386 96.3368 61.411 95.7705ZM62.2106 95.5928C62.3096 96.0227 62.4606 96.3729 62.669 96.6354C62.8774 96.9006 63.1196 97.0808 63.3983 97.1812C63.6771 97.279 63.9688 97.2945 64.2761 97.2275C64.5861 97.158 64.844 97.0216 65.0523 96.8156C65.2607 96.6097 65.4014 96.342 65.4743 96.015C65.5472 95.6881 65.5342 95.3097 65.4378 94.8772C65.3389 94.4473 65.1878 94.0971 64.9794 93.8346C64.771 93.5694 64.5288 93.3892 64.2527 93.2888C63.9766 93.191 63.6823 93.1755 63.3723 93.2425C63.0649 93.312 62.8071 93.4484 62.5987 93.6544C62.3903 93.8603 62.2497 94.128 62.1767 94.455C62.1012 94.7819 62.1116 95.1629 62.2106 95.5928Z" fill="white"/>
<path d="M55.5506 97.2429L56.3841 97.1785C56.431 97.3536 56.5013 97.5029 56.6003 97.629C56.6992 97.7578 56.8139 97.8633 56.9467 97.9457C57.0795 98.0306 57.228 98.0898 57.3869 98.1259C57.5458 98.1619 57.7151 98.1722 57.8896 98.1593C58.2048 98.1362 58.4809 98.0358 58.7179 97.8607C58.9549 97.6857 59.132 97.4411 59.2519 97.127C59.3717 96.813 59.416 96.4371 59.3821 95.9995C59.3482 95.5593 59.2467 95.1937 59.0799 94.9002C58.9132 94.6093 58.6997 94.3931 58.4366 94.2567C58.1761 94.1202 57.887 94.0636 57.577 94.0868C57.4051 94.0996 57.241 94.1357 57.09 94.1949C56.9389 94.2541 56.8008 94.3339 56.681 94.4343C56.5612 94.5347 56.4622 94.6557 56.3841 94.7947C56.3059 94.9337 56.2564 95.0907 56.2356 95.2658L55.4021 95.325C55.4255 95.0547 55.4933 94.805 55.6027 94.5733C55.7121 94.3416 55.8605 94.1357 56.0481 93.9606C56.2356 93.7856 56.4518 93.6414 56.6992 93.5358C56.9467 93.4277 57.2228 93.3634 57.5223 93.3402C57.9964 93.3042 58.4288 93.384 58.8169 93.5796C59.205 93.7753 59.5228 94.0713 59.7676 94.4703C60.0124 94.8693 60.1583 95.3585 60.2026 95.9351C60.2469 96.5143 60.1791 97.0189 59.9968 97.4488C59.8145 97.8787 59.5462 98.2211 59.1946 98.4708C58.8429 98.7205 58.4288 98.8647 57.9547 98.9008C57.663 98.9239 57.3895 98.9033 57.1316 98.839C56.8738 98.7772 56.6367 98.6742 56.4231 98.5301C56.2096 98.3885 56.0272 98.2083 55.8788 97.992C55.7303 97.7809 55.6209 97.5286 55.5506 97.2429Z" fill="white"/>
<path d="M53.8626 93.546L54.7404 93.5975L52.443 98.9032L51.4871 98.8466L49.8383 93.3118L50.7161 93.3633L52.0028 97.8889L52.0445 97.8915L53.8626 93.546ZM53.5891 95.6596L50.7395 95.4922L50.7812 94.8049L53.6308 94.9722L53.5891 95.6596Z" fill="white"/>
<path d="M47.3301 92.8513L49.0752 93.1937L48.0073 98.52L46.2074 98.1673C45.6787 98.0643 45.2463 97.8687 44.9103 97.5829C44.5743 97.2972 44.3451 96.9342 44.22 96.4991C44.095 96.0641 44.0898 95.5698 44.2018 95.0163C44.3138 94.4603 44.5118 94.0046 44.7957 93.6468C45.0796 93.289 45.4364 93.0392 45.8662 92.9002C46.296 92.7612 46.7831 92.7458 47.3301 92.8513ZM48.1219 93.7369L47.2363 93.5644C46.8248 93.4846 46.4705 93.4949 46.1658 93.5953C45.861 93.6957 45.6162 93.8785 45.4208 94.1436C45.2281 94.4088 45.0874 94.7537 45.0041 95.1734C44.9207 95.5904 44.9155 95.9585 44.991 96.2752C45.0666 96.5918 45.2229 96.8518 45.4573 97.0552C45.6917 97.2586 46.0069 97.3976 46.3976 97.4748L47.3353 97.6576L48.1219 93.7369Z" fill="white"/>
<path d="M43.5896 91.9938L44.4231 92.2718L40.7896 96.7872L39.8831 96.4834L39.7711 90.7144L40.6046 90.9924L40.6359 95.6931L40.6776 95.706L43.5896 91.9938ZM42.7613 93.9606L40.0576 93.057L40.2816 92.4031L42.9853 93.3067L42.7613 93.9606Z" fill="white"/>
<path d="M34.6321 92.694C34.5462 92.9309 34.5644 93.1574 34.6894 93.3736C34.8145 93.5873 35.0176 93.7649 35.3016 93.9014C35.5047 93.9992 35.6949 94.0533 35.872 94.061C36.0517 94.0713 36.208 94.0404 36.3434 93.9709C36.4789 93.9014 36.5805 93.7984 36.6482 93.6594C36.7055 93.5435 36.7263 93.4303 36.7133 93.3196C36.7003 93.2089 36.6612 93.1033 36.5987 93.0029C36.5362 92.9025 36.4607 92.8099 36.3747 92.7198C36.2887 92.6322 36.2028 92.5524 36.1194 92.4829L35.7001 92.1251C35.562 92.0118 35.4266 91.8805 35.2937 91.7364C35.1609 91.5922 35.0489 91.43 34.9603 91.2575C34.8718 91.0825 34.8223 90.8946 34.8119 90.6963C34.8014 90.4981 34.8509 90.287 34.9603 90.0682C35.0984 89.7927 35.2911 89.5817 35.5412 89.4375C35.7912 89.2933 36.083 89.2238 36.4164 89.2315C36.7498 89.2393 37.1092 89.3371 37.4947 89.5224C37.8646 89.7001 38.1537 89.9137 38.3673 90.1609C38.5783 90.408 38.7085 90.6732 38.7554 90.9615C38.8023 91.2498 38.7606 91.5433 38.6304 91.8445L37.8828 91.4841C37.9558 91.3013 37.9688 91.1262 37.9271 90.9615C37.8828 90.7942 37.7943 90.6448 37.664 90.511C37.5312 90.3771 37.3697 90.2638 37.1795 90.1712C36.9686 90.0682 36.7654 90.0116 36.5674 89.9987C36.3695 89.9858 36.195 90.0141 36.0413 90.0862C35.8876 90.1583 35.773 90.2741 35.6923 90.4338C35.6219 90.5779 35.6037 90.7169 35.6402 90.8482C35.6766 90.9795 35.7522 91.1108 35.8616 91.2395C35.971 91.3682 36.1038 91.497 36.2575 91.6282L36.7628 92.0685C37.104 92.3671 37.341 92.6734 37.4687 92.9926C37.5963 93.3119 37.5781 93.6388 37.4088 93.9786C37.2707 94.2592 37.0702 94.4677 36.8123 94.6016C36.5544 94.7355 36.2653 94.7972 35.9423 94.7869C35.6219 94.7767 35.2963 94.6891 34.9655 94.5295C34.6321 94.3673 34.3639 94.1665 34.1659 93.9271C33.9679 93.6877 33.8429 93.4303 33.796 93.1574C33.7491 92.8845 33.7856 92.6142 33.9106 92.3491L34.6321 92.694Z" fill="white"/>
<path d="M26.1666 88.8714L29.459 84.5259L30.0685 84.9764L29.8888 89.8187L29.9304 89.8496L32.345 86.6626L33.0092 87.1543L29.7168 91.4998L29.1021 91.0441L29.2819 86.1966L29.2402 86.1657L26.823 89.3579L26.1666 88.8714Z" fill="white"/>
<path d="M23.2573 82.3454C23.674 81.9361 24.1064 81.6607 24.5544 81.5165C25.0051 81.3723 25.44 81.3517 25.8646 81.4573C26.2892 81.5603 26.6669 81.7791 27.0003 82.1112C27.3363 82.4433 27.5551 82.8191 27.6593 83.2387C27.7634 83.6583 27.74 84.0883 27.5915 84.5336C27.4431 84.979 27.1644 85.4037 26.7476 85.8131C26.3309 86.2224 25.8985 86.4978 25.4505 86.642C24.9998 86.7862 24.5649 86.8068 24.1403 86.7012C23.7157 86.5982 23.338 86.3794 23.002 86.0473C22.6686 85.7152 22.4498 85.3394 22.3456 84.9223C22.2415 84.5027 22.2649 84.0728 22.4108 83.6275C22.5592 83.1821 22.8405 82.7548 23.2573 82.3454ZM23.8355 82.9195C23.5178 83.231 23.3016 83.5451 23.187 83.8591C23.0724 84.1732 23.0463 84.4744 23.1088 84.7576C23.1713 85.0408 23.3146 85.2956 23.5386 85.517C23.7626 85.7384 24.0179 85.88 24.3044 85.9444C24.5909 86.0087 24.8957 85.983 25.2134 85.8697C25.5312 85.7564 25.849 85.5428 26.1668 85.2313C26.4845 84.9198 26.7007 84.6057 26.8153 84.2916C26.9299 83.9776 26.956 83.6764 26.8935 83.3932C26.831 83.11 26.6877 82.8552 26.4637 82.6338C26.2423 82.4124 25.987 82.2708 25.6979 82.2064C25.4088 82.1421 25.1066 82.1678 24.7863 82.2785C24.4711 82.3969 24.1533 82.608 23.8355 82.9195Z" fill="white"/>
<path d="M23.0176 77.6604L23.5073 78.3838L17.8421 79.7817L17.3081 78.994L20.7724 74.3499L21.2621 75.0732L18.3917 78.8215L18.4151 78.8575L23.0176 77.6604ZM21.1474 78.7211L19.5586 76.3784L20.1368 75.9949L21.7257 78.3375L21.1474 78.7211Z" fill="white"/>
<path d="M20.4233 73.6466L15.5213 76.0948L15.1462 75.3637L19.4127 73.2322L18.2901 71.0363L18.9256 70.717L20.4233 73.6466Z" fill="white"/>
<path d="M12.1768 68.4055L11.8981 67.6306L15.3025 66.4335C15.6645 66.3074 16.0162 66.2791 16.3548 66.3486C16.6934 66.4181 16.9982 66.5777 17.2664 66.8274C17.5347 67.0771 17.7431 67.4066 17.8916 67.8159C18.0374 68.2227 18.0869 68.6088 18.0374 68.9692C17.9879 69.3296 17.8551 69.6437 17.6363 69.9089C17.4175 70.174 17.1284 70.3722 16.7663 70.4984L13.362 71.6954L13.0833 70.9232L16.4251 69.7493C16.6595 69.6669 16.8497 69.5433 16.9929 69.376C17.1388 69.2087 17.2274 69.013 17.2638 68.789C17.3003 68.5651 17.2717 68.3231 17.1779 68.0656C17.0841 67.8056 16.9513 67.5997 16.7794 67.4478C16.6075 67.2959 16.4121 67.2007 16.1933 67.1646C15.9745 67.1286 15.7479 67.1492 15.5135 67.2316L12.1768 68.4055Z" fill="white"/>
<path d="M10.4994 61.4626L15.8859 60.3943L16.0344 61.1331L12.6326 64.6213L12.6431 64.6703L16.5944 63.8877L16.7585 64.6908L11.372 65.7592L11.2209 65.0152L14.6279 61.5218L14.6174 61.4729L10.6609 62.2581L10.4994 61.4626Z" fill="white"/>
<path d="M12.7394 54.6815C13.3255 54.6506 13.8334 54.7304 14.2658 54.9209C14.6982 55.1114 15.0368 55.3843 15.2816 55.7396C15.5265 56.0948 15.6619 56.5067 15.688 56.9752C15.714 57.4438 15.6228 57.8685 15.4171 58.2495C15.2113 58.6305 14.9039 58.9369 14.4924 59.1712C14.0808 59.4054 13.586 59.5367 13.0025 59.5676C12.4164 59.5985 11.9085 59.5187 11.4761 59.3282C11.0438 59.1377 10.7051 58.8648 10.4603 58.5095C10.2155 58.1543 10.08 57.7398 10.054 57.2713C10.0279 56.8028 10.1191 56.3806 10.3249 55.9996C10.5306 55.6186 10.838 55.3122 11.2469 55.078C11.6559 54.8437 12.1534 54.7124 12.7394 54.6815ZM12.7837 55.4924C12.3383 55.5156 11.9658 55.6057 11.6663 55.7653C11.3667 55.9223 11.1453 56.1309 11.0021 56.3831C10.8562 56.638 10.7937 56.9212 10.8093 57.2301C10.825 57.5416 10.9187 57.8171 11.0906 58.0539C11.2626 58.2907 11.5048 58.4735 11.8174 58.5996C12.1299 58.7258 12.5102 58.7773 12.9582 58.7541C13.4036 58.7309 13.7761 58.6408 14.0756 58.4812C14.3752 58.3216 14.5966 58.1182 14.7398 57.8634C14.8857 57.6111 14.9482 57.3279 14.9326 57.0139C14.917 56.7024 14.8232 56.4295 14.6513 56.1901C14.4794 55.9507 14.2371 55.7705 13.9246 55.6443C13.6094 55.5182 13.2291 55.4667 12.7837 55.4924Z" fill="white"/>
<path fill-rule="evenodd" clip-rule="evenodd" d="M48.7839 34.6496C48.4655 34.3098 48.3079 34.1418 48.114 34.061C47.9241 33.9819 47.6993 33.9866 47.2544 33.9959C47.074 33.9997 46.8575 34.0042 46.5924 34.0042C46.555 34.0042 46.4881 34.0171 46.4081 34.0324C46.1071 34.0902 45.6212 34.1834 45.8318 33.7619C45.9416 33.5511 46.039 33.5861 46.1756 33.6352C46.2277 33.6539 46.2855 33.6746 46.3519 33.6846C47.0778 33.7973 47.4431 33.7449 47.6893 33.7095C48.0796 33.6536 48.1705 33.6405 48.9237 34.396C49.1905 34.6608 49.4025 34.863 49.572 35.0246C49.9415 35.3769 50.1085 35.5361 50.1983 35.7309C50.2724 35.8915 50.2941 36.0763 50.3336 36.4136C50.3516 36.5677 50.3734 36.7537 50.4056 36.9838C50.436 37.1924 50.4848 37.3356 50.5259 37.4561C50.5873 37.6363 50.6313 37.7656 50.5703 37.9865H50.1782C50.1583 37.9353 50.1424 37.6702 50.1247 37.3752L50.1247 37.3751C50.1076 37.09 50.0889 36.7771 50.0632 36.6023C50.0549 36.5458 50.0475 36.4937 50.0406 36.4453C49.9674 35.9315 49.9552 35.8458 49.5849 35.476C49.2294 35.1248 48.9771 34.8556 48.7839 34.6496ZM44.1225 35.0326C44.1225 34.347 45.3509 34.3212 45.3509 35.0326C45.3509 35.958 44.1225 35.958 44.1225 35.0326ZM43.1477 64.2101C42.8608 64.1234 42.8605 64.1193 42.8515 63.9862C42.8474 63.9253 42.8414 63.8374 42.8053 63.7023L40.2701 57.7869C40.2026 57.6257 40.1203 57.4606 40.0363 57.2921C39.7564 56.7302 39.4577 56.1308 39.6246 55.5161L41.475 48.1161C41.5801 47.7225 41.6634 47.3806 41.7529 47.0136L41.7529 47.0135L41.7782 46.9098C41.8063 46.8009 41.8179 46.6591 41.8296 46.5163C41.8602 46.1422 41.8914 45.7611 42.2225 45.9458C42.4633 46.0769 42.3776 46.2079 42.2876 46.3454L42.2876 46.3455C42.2643 46.381 42.2407 46.417 42.2225 46.4536L41.1065 50.7426C40.9806 51.2392 40.8461 51.7495 40.7103 52.265L40.7102 52.265C40.409 53.4083 40.101 54.5771 39.865 55.6785C39.7685 56.1088 40.6387 58.0095 41.1834 59.1993L41.1834 59.1993C41.3467 59.5561 41.4808 59.849 41.5508 60.019L42.476 62.1764C42.5583 62.3671 42.6315 62.5321 42.7047 62.6971C42.7779 62.862 42.851 63.027 42.9334 63.2177C43.062 63.5006 43.1876 63.6667 43.2725 63.779C43.4204 63.9746 43.4449 64.007 43.1477 64.2101ZM64.4667 73.703L62.2478 74.3886C61.595 74.6094 59.6737 74.0571 58.4069 73.693L58.4067 73.6929C58.0759 73.5979 57.7898 73.5156 57.5825 73.4633C57.0956 73.3363 56.7806 73.0062 56.3716 72.5775C56.2494 72.4493 56.1187 72.3124 55.9725 72.1694C55.734 71.9336 55.5074 71.7124 55.2862 71.4966C54.5669 70.7949 53.9054 70.1495 53.0819 69.2388C52.7936 68.9243 52.4146 68.5546 52.0657 68.2143L52.0655 68.2141C51.9084 68.0608 51.7574 67.9135 51.6235 67.7799C51.5488 67.7046 51.4763 67.6295 51.4043 67.5549L51.404 67.5546L51.404 67.5546C51.2445 67.3894 51.0872 67.2265 50.9126 67.0685C50.9126 67.0685 49.8358 66.4473 50.5572 66.3313C50.7323 66.3016 50.788 66.4078 50.851 66.5277C50.8698 66.5635 50.8892 66.6005 50.9126 66.6355L53.4609 69.213L56.3881 72.1075C56.521 72.2374 56.6273 72.3548 56.7242 72.4617L56.7243 72.4617C57.0619 72.8342 57.2845 73.0798 58.1131 73.288C58.8867 73.4788 59.6472 73.6695 60.4209 73.8834C60.6258 73.938 60.7929 73.9869 60.9351 74.0284L60.9352 74.0285C61.6192 74.2286 61.7244 74.2594 62.6895 73.935C63.1088 73.7913 63.4354 73.6605 63.6876 73.5594C64.3581 73.2909 64.5028 73.2329 64.4667 73.703ZM46.974 32.468H48.4193C48.6336 32.4938 48.8009 32.5557 48.9263 32.6845L51.1688 34.9321C51.3679 35.1609 51.6139 37.0504 51.7533 38.1214C51.7913 38.4136 51.8214 38.645 51.8405 38.7649L53.9705 53.5881C54.0209 53.7385 54.0871 53.8815 54.1561 54.0301L54.1561 54.0302C54.2088 54.1439 54.2631 54.2609 54.3129 54.3872C54.7572 55.4903 55.1623 56.5059 55.5805 57.6116C55.8893 58.4317 56.3071 59.4381 56.7307 60.4583L56.7307 60.4583C57.2643 61.7435 57.807 63.0505 58.1523 64.0348L58.171 64.0882L58.171 64.0883C58.5117 65.0607 58.9746 66.3822 59.6342 67.0427L64.1348 71.5482C64.4827 71.8991 64.7548 72.1597 64.9674 72.3633C65.3949 72.7728 65.5815 72.9515 65.6588 73.169C65.7187 73.3375 65.7131 73.5293 65.7031 73.8697C65.6983 74.0336 65.6925 74.232 65.6925 74.4789L62.2321 75.5949C61.7548 75.7929 61.7447 75.7898 61.4519 75.6998C61.3711 75.6749 61.2687 75.6435 61.1291 75.6078C60.9743 75.5663 60.6782 75.4934 60.3061 75.4018L60.3056 75.4017L60.3055 75.4017C58.9692 75.0729 56.653 74.503 56.375 74.2752L51.8117 69.7569C51.672 69.6249 51.5042 69.4531 51.3275 69.2722L51.3275 69.2721C50.9589 68.8947 50.5513 68.4774 50.2775 68.298C50.345 68.5336 50.5066 68.6911 50.6672 68.8478L50.6672 68.8479C50.7491 68.9277 50.8307 69.0074 50.8996 69.097C51.0167 69.2478 51.0682 69.3039 51.192 69.4384L51.2289 69.4785L55.3113 74.2263C54.8043 74.2263 50.5572 72.7158 50.0501 72.5251C49.7493 72.4043 49.4568 72.3201 49.1725 72.2382C48.6196 72.0789 48.0975 71.9286 47.6038 71.5353C47.3218 71.3113 47.0554 71.0986 46.7925 70.8887L46.7908 70.8873C46.4282 70.5978 46.0721 70.3136 45.6907 70.012C45.4354 69.8141 45.2091 69.629 44.9686 69.4322C44.8866 69.3651 44.8029 69.2967 44.7158 69.2259C44.3805 68.9538 44.1384 68.7724 43.9561 68.6358L43.956 68.6358C43.4079 68.2252 43.4007 68.2198 43.0301 67.3727L41.4959 63.7925C41.4409 63.6649 41.3869 63.5392 41.3334 63.4147C41.0411 62.7342 40.7652 62.0921 40.4426 61.4057C40.3397 61.1883 40.2567 60.9867 40.1735 60.7846L40.1735 60.7846C40.092 60.5865 40.0103 60.388 39.9094 60.1737C39.5801 59.4752 38.1217 56.328 38.1845 55.9466L40.7562 45.6417L42.0735 43.523C42.1839 43.3378 42.2887 43.1708 42.3949 43.0017C42.5074 42.8225 42.6215 42.6409 42.7452 42.4327C42.7972 42.3453 42.8573 42.2553 42.9187 42.1636L42.9187 42.1636C43.0979 41.8955 43.2877 41.6118 43.3149 41.3295C43.1281 41.2778 43.0159 41.1824 42.8902 41.0756C42.8279 41.0225 42.7622 40.9667 42.6825 40.9119L37.9675 37.3318C37.6347 37.059 37.4134 36.9117 37.2558 36.8067C36.8785 36.5556 36.8656 36.5469 36.5614 35.6435C36.4553 35.3253 36.3613 35.0469 36.266 34.7645L36.266 34.7644C36.1899 34.539 36.1129 34.3111 36.0283 34.0583C35.9949 33.9578 35.9518 33.8387 35.9053 33.7101C35.7588 33.3048 35.5783 32.8055 35.5604 32.4964H46.9295H46.9687V32.468H46.974ZM60.3282 58.5494C62.1454 59.4655 63.8415 60.3206 64.0539 60.3206C64.2634 60.3206 65.5057 59.904 66.5788 59.5442C67.2315 59.3254 67.8216 59.1275 68.0785 59.0572C68.567 58.9178 69.0253 58.7617 69.4777 58.6077L69.4779 58.6076L69.4781 58.6076C69.6869 58.5365 69.8944 58.4658 70.1029 58.3975C70.4356 58.2865 70.7101 58.2 70.9422 58.1268L70.9423 58.1268C71.462 57.963 71.7694 57.8661 72.0436 57.7105C72.4408 57.485 72.768 57.1363 73.5694 56.2822L73.5703 56.2812C73.7197 56.122 73.8856 55.9452 74.0714 55.7485L77.0157 52.7327C77.0215 52.7258 77.0321 52.7188 77.0427 52.7119L77.0427 52.7118C77.0516 52.7061 77.0604 52.7003 77.0665 52.6945C77.0723 52.6875 77.0829 52.6806 77.0935 52.6737C77.1023 52.6679 77.1112 52.6621 77.1173 52.6563C77.1473 52.6352 77.159 52.6225 77.1672 52.6136C77.1838 52.5955 77.1863 52.5927 77.2991 52.5671C77.2991 52.6714 77.3006 52.7801 77.302 52.8899V52.89C77.305 53.1127 77.3081 53.3397 77.2991 53.5427C77.293 53.7217 77.2735 53.8244 77.2542 53.9264L77.2542 53.9265C77.2311 54.0479 77.2082 54.1686 77.2082 54.4163L77.0263 59.0929C76.9834 59.3671 76.7833 59.7812 76.605 60.15L76.6049 60.1504C76.5613 60.2404 76.5191 60.3278 76.4808 60.4097C76.4327 60.5155 76.3851 60.6077 76.3363 60.7024L76.3363 60.7025C76.2793 60.813 76.2206 60.9268 76.1572 61.0694L73.3948 67.0016L66.4794 72.6664C66.1665 72.4627 59.7084 66.1407 59.5773 65.9242L55.6597 56.3547C56.0258 56.3805 58.2557 57.5046 60.3281 58.5494L60.3282 58.5494ZM75.4753 56.5806C75.4842 56.5752 75.4941 56.5716 75.5122 56.5648C75.537 56.5555 75.5774 56.5404 75.6518 56.5075C75.7069 58.638 75.6006 58.8658 74.9429 60.2753C74.8339 60.5088 74.7098 60.7748 74.5688 61.0872C74.5102 61.202 74.3818 61.395 74.2978 61.5213L74.2978 61.5213C74.2513 61.5911 74.2185 61.6405 74.2185 61.6451C74.1409 61.8718 74.3762 62.1519 74.5955 61.9227L75.1277 60.5676C76.0102 58.6649 76.1011 58.4 75.9968 55.751C75.7259 55.8952 75.0793 56.57 74.4155 57.2628L74.4155 57.2629L74.4154 57.263L74.4153 57.263C73.6836 58.0267 72.9311 58.8122 72.638 58.9324C72.1356 59.1387 71.5243 59.3214 70.9354 59.4974L70.9353 59.4974L70.9353 59.4974C70.659 59.58 70.3877 59.661 70.135 59.7424L65.1931 61.3521C65.0076 61.41 64.8534 61.4603 64.7231 61.5029C64.3283 61.6318 64.1528 61.6891 63.9876 61.6675C63.8553 61.6502 63.7297 61.5823 63.5035 61.4601C63.3502 61.3772 63.1508 61.2695 62.8719 61.1356C62.4828 60.9459 62.1098 60.7682 61.7401 60.5922C61.3704 60.4161 61.004 60.2416 60.6283 60.0582L58.7082 59.1081C58.6269 59.0498 58.6041 59.0157 58.5883 58.9922C58.5661 58.9592 58.5578 58.9468 58.4221 58.9171C58.1119 58.8407 57.9809 59.0546 58.1627 59.2711C58.2656 59.392 58.2927 59.3925 58.3674 59.394C58.4344 59.3953 58.5397 59.3973 58.7724 59.4877L62.0937 61.0847C62.4651 61.2631 62.7527 61.4137 62.9869 61.5363C63.4247 61.7655 63.6763 61.8972 63.9406 61.9315C64.2978 61.9778 64.6782 61.8461 65.5727 61.5363C65.9268 61.4137 66.3615 61.2631 66.9073 61.0847C67.6081 60.8586 68.3176 60.6279 69.0293 60.3965L69.0297 60.3963L69.0302 60.3962C69.9936 60.0829 70.961 59.7683 71.916 59.4622C73.266 59.0249 73.8111 58.3795 74.3867 57.6979L74.3868 57.6979C74.6628 57.371 74.9459 57.0358 75.3282 56.7113C75.3838 56.6629 75.4153 56.6333 75.4356 56.6142C75.4556 56.5955 75.4648 56.5869 75.4753 56.5806ZM32.5434 72.2586C32.4634 72.1729 32.4651 72.0107 32.4702 71.5436C32.4717 71.4039 32.4735 71.2369 32.4735 71.0365C32.4735 70.7216 32.6203 70.5508 32.7929 70.3501L32.793 70.35C32.8211 70.3173 32.8499 70.2838 32.8789 70.2487L35.3583 67.0343C35.6043 66.7063 35.7956 66.4722 35.9472 66.2869C36.3835 65.7533 36.4897 65.6235 36.6186 64.8159L37.3605 59.8942C37.3891 59.6165 37.4424 59.3265 37.4948 59.0412C37.5638 58.666 37.6312 58.299 37.639 57.9788C37.8997 58.1759 38.4324 59.5041 38.7372 60.264C38.8194 60.4689 38.885 60.6325 38.9242 60.7215C39.1752 61.259 42.4654 68.4518 42.5178 69.0288L37.5701 72.0746C37.4938 72.1214 37.367 72.2087 37.209 72.3173C36.5673 72.7586 35.4123 73.5531 35.0494 73.4262L33.2843 72.6121C33.2337 72.5869 33.206 72.5694 33.1801 72.553C33.1382 72.5265 33.1008 72.5028 32.9782 72.454C32.8882 72.4144 32.8138 72.3872 32.7524 72.3649L32.7524 72.3649C32.6517 72.3281 32.586 72.3042 32.5434 72.2586ZM34.9485 70.2527C35.1131 70.0358 35.2584 69.8442 35.4465 69.6058L37.7163 66.5495C38.084 66.0921 38.0895 66.0441 38.1538 65.4839L38.1538 65.4837C38.1614 65.418 38.1697 65.3452 38.1796 65.2638C38.232 64.7527 38.2982 64.2257 38.3644 63.7146C38.3773 63.6178 38.412 63.4906 38.4488 63.3556C38.5614 62.9431 38.6937 62.4581 38.2844 62.5474C38.0711 62.5944 38.0735 62.6694 38.0826 62.9489C38.0888 63.1391 38.0981 63.4241 38.0445 63.8595C37.9932 64.266 37.9579 64.5895 37.929 64.8534C37.8632 65.4555 37.8313 65.7471 37.7225 66.0063C37.6203 66.2496 37.4503 66.4643 37.1207 66.8807C36.9611 67.0823 36.7642 67.3312 36.5193 67.6535L34.0538 70.8811C33.9907 70.9467 33.9254 71.0038 33.8662 71.0554C33.6404 71.2523 33.5047 71.3706 33.9352 71.5898C34.1667 71.4976 34.1703 71.4877 34.2085 71.3811C34.2467 71.2745 34.3197 71.071 34.6908 70.5912C34.7857 70.4673 34.8692 70.3572 34.9483 70.253L34.9485 70.2527ZM74.145 36.6973C74.3103 36.5 74.4994 36.2742 74.5948 36.0965C74.8103 36.3144 75.0018 36.5989 75.1959 36.8873C75.3163 37.0662 75.4377 37.2466 75.5665 37.4134C75.6279 37.4992 75.6609 37.5536 75.6947 37.6092C75.726 37.6606 75.7578 37.7131 75.8133 37.7923C75.861 37.8601 75.8919 37.8998 75.92 37.9359C75.9539 37.9794 75.9837 38.0178 76.0339 38.0938C76.0399 38.1084 76.0678 38.1512 76.0933 38.1902C76.1127 38.22 76.1307 38.2476 76.1364 38.2587C76.3156 38.5155 76.3604 38.524 76.3732 38.5489C76.3836 38.5692 76.3727 38.6005 76.3964 38.7871L76.1232 45.2737C76.1232 46.1269 76.1075 46.4704 76.162 46.8024C76.2274 47.2014 76.3941 47.5838 76.8113 48.8147C76.872 48.9827 76.9119 49.1242 76.952 49.2665C76.99 49.4013 77.0282 49.5368 77.0844 49.696C77.1096 49.7664 77.1335 49.8279 77.1556 49.8849C77.2372 50.0952 77.2947 50.2433 77.305 50.5413L75.8921 52.0541C75.6449 52.302 75.3389 52.5864 75.0219 52.881C74.4228 53.4377 73.7843 54.031 73.4288 54.4843C73.2242 54.7483 72.9909 54.9654 72.7456 55.1936C72.6509 55.2817 72.5544 55.3715 72.4571 55.4662C72.002 55.9085 71.9292 56.0208 71.8258 56.0757C71.7407 56.1209 71.635 56.1272 71.2779 56.2471C70.9868 56.3505 70.618 56.4765 70.273 56.5944C70.1107 56.6499 69.9537 56.7036 69.8125 56.7522L68.3865 57.2058C68.4063 56.9788 68.5942 56.7022 68.7913 56.4122C68.856 56.3169 68.9216 56.2202 68.9827 56.1234L70.3036 54.0694C70.6681 53.4765 70.8798 53.2767 70.9324 53.0413C71.0071 52.7068 70.7607 52.3006 70.1749 50.5929C70.0708 50.2876 70.0007 50.0466 69.9448 49.8545C69.7724 49.2619 69.7358 49.1362 69.2558 49.0311C68.9102 48.9526 68.0936 48.8046 67.1591 48.6351C65.3948 48.3153 63.2102 47.9192 62.9819 47.7709C62.8695 47.6913 62.1947 46.6859 61.8162 46.1219C61.7171 45.9743 61.6383 45.8568 61.5952 45.7943C61.5632 45.7488 61.5191 45.6868 61.4662 45.6126C61.1115 45.1146 60.3665 44.0688 60.2979 43.8176C60.6437 43.789 61.3932 43.5278 61.9694 43.3269C62.1722 43.2563 62.3535 43.1931 62.4881 43.1501L67.8928 41.4003C67.9556 41.379 67.9911 41.3694 68.0217 41.3611C68.0616 41.3503 68.0932 41.3418 68.1659 41.3126C68.4949 41.172 69.7016 39.6507 70.8025 38.2627C71.4769 37.4125 72.1116 36.6123 72.4807 36.2099C72.5703 36.1116 72.6805 35.9607 72.8029 35.7932C73.1039 35.3811 73.4787 34.868 73.8017 34.7874C73.8452 34.9344 73.8463 34.9497 73.854 34.9545C73.862 34.9596 73.8773 34.9532 73.9566 35.076L74.4504 35.844C74.341 36.0294 74.1991 36.1905 74.0475 36.3625C73.9842 36.4343 73.9192 36.508 73.8542 36.5862L72.6488 38.0474C72.5383 38.1837 72.4275 38.262 72.3366 38.3263C72.1834 38.4346 72.0869 38.5029 72.1446 38.7407C72.4655 39.044 72.5679 38.8013 72.6699 38.5599C72.704 38.4792 72.738 38.3987 72.7801 38.3386L73.9855 36.8903C74.0324 36.8316 74.0872 36.7662 74.145 36.6973ZM75.4636 48.4992C75.3753 48.2318 75.2871 47.9647 75.2041 47.6988C75.0593 47.237 75.0202 46.9531 74.9956 46.7741C74.9631 46.5376 74.9557 46.4844 74.7629 46.4463C74.2832 46.357 74.5263 46.846 74.6898 47.175C74.734 47.2639 74.7724 47.3411 74.7891 47.3921C75.4113 49.3353 75.6919 49.8302 75.5693 50.1862C75.5051 50.3727 75.3303 50.5211 75.036 50.8197L72.1314 53.6932C72.0835 53.7253 72.03 53.7507 71.9789 53.775C71.8088 53.8557 71.6654 53.9238 71.8452 54.1854C72.0248 54.4542 72.1605 54.2606 72.3554 53.9827C72.4427 53.8583 72.5418 53.717 72.6619 53.5927C72.9272 53.3186 73.2012 53.0554 73.4736 52.7937C73.7621 52.5166 74.0488 52.2412 74.3217 51.9562C74.4397 51.8349 74.5901 51.6876 74.7534 51.5278C75.2009 51.0898 75.7448 50.5575 75.9814 50.2063C75.8402 49.6399 75.6516 49.0687 75.4636 48.4992Z" fill="#EE972D"/>
</svg>
